<svg width="16" height="17" viewBox="0 0 16 17" fill="none" xmlns="http://www.w3.org/2000/svg">
<path d="M14.6573 11.2602C13.6816 11.2602 12.7236 11.1076 11.8158 10.8076C11.371 10.6559 10.8242 10.7951 10.5527 11.0739L8.76082 12.4266C6.68279 11.3173 5.40276 10.0377 4.30865 7.97527L5.62151 6.23012C5.96259 5.88948 6.08494 5.3919 5.93836 4.92502C5.63707 4.01244 5.48402 3.05491 5.48402 2.07883C5.48406 1.3737 4.9104 0.800049 4.20532 0.800049H1.27874C0.573654 0.800049 0 1.3737 0 2.07879C0 10.1609 6.57518 16.736 14.6573 16.736C15.3624 16.736 15.936 16.1624 15.936 15.4573V12.5389C15.936 11.8339 15.3623 11.2602 14.6573 11.2602Z" fill="white"/>
</svg>
