<svg width="1920" height="842" viewBox="0 0 1920 842" fill="none" xmlns="http://www.w3.org/2000/svg">
<path d="M857 92.2294C669.8 101.344 201.667 34.5408 -9 0V692.263C231.833 753.749 408 849.386 910.5 813.246C1413 777.106 1659.83 811.257 1936 842V92.2294C1792.5 16.8183 1091 80.8363 857 92.2294Z" fill="#BD93EA"/>
<g clip-path="url(#clip0_1_348)">
<path d="M1761.15 209.092C1760.1 208.841 1759.04 209.488 1758.79 210.538L1758.78 210.582C1758.53 211.632 1759.18 212.685 1760.23 212.936C1761.28 213.186 1762.33 212.539 1762.58 211.49L1762.59 211.445C1762.84 210.396 1762.2 209.342 1761.15 209.092Z" fill="#BB6BD9"/>
<path d="M1776.18 191.497C1774.63 191.127 1773.08 190.91 1771.54 190.833L1771.36 184.157C1771.36 184.157 1771.36 184.157 1771.36 184.157C1771.22 179.128 1778.26 176.5 1782.44 175.74C1787.2 174.874 1790.94 171.81 1792.45 167.543C1793.82 163.647 1793.05 159.469 1790.37 156.367C1788.93 154.699 1786.17 152.498 1781.28 151.562C1781.27 151.56 1781.26 151.558 1781.25 151.556C1777.94 150.929 1773.66 150.878 1768.14 151.956C1767.09 152.163 1766.4 153.189 1766.6 154.248C1766.81 155.306 1767.84 155.997 1768.89 155.79C1772.79 155.028 1776.31 154.848 1779.28 155.218C1779.47 156.318 1779.3 156.788 1779.2 156.957C1778.86 157.524 1777.49 157.802 1776.16 158.071C1774.68 158.37 1773.01 158.708 1771.55 159.606C1770.63 160.172 1770.35 161.376 1770.91 162.293C1771.2 162.751 1771.64 163.052 1772.12 163.167C1772.61 163.284 1773.14 163.214 1773.6 162.93C1774.46 162.398 1775.72 162.145 1776.93 161.9C1778.99 161.483 1781.32 161.012 1782.55 158.971C1783.03 158.181 1783.26 157.25 1783.27 156.164C1784.98 156.812 1786.38 157.733 1787.41 158.92C1789.16 160.948 1789.67 163.685 1788.76 166.243C1787.73 169.171 1785.11 171.285 1781.74 171.896C1775.82 172.972 1769.09 176.187 1767.71 181.849C1757.73 179.936 1746.99 181.084 1736.84 185.121C1733.53 184.111 1731.61 181.513 1731.65 178.265L1737.66 179.698C1740.38 180.349 1743.12 178.662 1743.78 175.938C1744.43 173.215 1742.74 170.47 1740.02 169.82L1723.8 165.948C1721.08 165.298 1718.34 166.985 1717.69 169.708C1717.04 172.432 1718.72 175.177 1721.45 175.827L1727.8 177.344C1727.59 179.735 1728.08 182.038 1729.24 183.978C1730 185.253 1731 186.328 1732.21 187.184C1732.21 187.185 1732.2 187.187 1732.2 187.188C1723.9 191.296 1716.56 197.171 1710.78 204.213C1710.11 203.909 1709.4 203.662 1708.66 203.485C1702.38 201.984 1696.04 205.876 1694.54 212.161C1693.04 218.446 1696.93 224.78 1703.22 226.281C1709.5 227.782 1715.84 223.89 1717.34 217.605C1718.34 213.409 1716.94 209.194 1714.02 206.407C1727.28 190.414 1748.47 181.911 1767.5 185.791L1767.64 190.941C1757.24 192.041 1748.15 199.554 1745.59 210.295C1742.34 223.913 1750.77 237.637 1764.39 240.889C1778.01 244.141 1791.73 235.708 1794.98 222.091C1798.23 208.473 1789.8 194.749 1776.18 191.497ZM1722.35 172.028C1721.74 171.88 1721.34 171.234 1721.49 170.616C1721.63 169.998 1722.28 169.601 1722.9 169.748L1739.11 173.62C1739.73 173.767 1740.12 174.414 1739.98 175.032C1739.83 175.649 1739.18 176.047 1738.56 175.899L1722.35 172.028ZM1713.54 216.698C1712.54 220.888 1708.31 223.482 1704.12 222.482C1699.93 221.481 1697.34 217.258 1698.34 213.068C1699.34 208.878 1703.56 206.284 1707.75 207.284C1707.94 207.329 1708.12 207.382 1708.31 207.44C1706.81 209.529 1705.44 211.704 1704.22 213.953C1703.71 214.902 1704.06 216.087 1705.01 216.6C1705.16 216.684 1705.32 216.744 1705.49 216.783C1706.33 216.984 1707.23 216.607 1707.66 215.813C1708.84 213.619 1710.17 211.52 1711.61 209.519C1713.36 211.373 1714.17 214.041 1713.54 216.698ZM1767.92 201.146L1768.33 216.247C1768.33 216.272 1768.34 216.296 1768.34 216.32C1768.34 216.346 1768.34 216.372 1768.34 216.398C1768.35 216.451 1768.36 216.502 1768.37 216.553C1768.37 216.559 1768.37 216.564 1768.37 216.57C1768.38 216.63 1768.4 216.69 1768.41 216.749C1768.41 216.752 1768.42 216.755 1768.42 216.758C1768.43 216.811 1768.45 216.864 1768.47 216.916C1768.48 216.929 1768.48 216.941 1768.49 216.954C1768.51 216.995 1768.52 217.035 1768.54 217.075C1768.55 217.092 1768.56 217.109 1768.57 217.126C1768.59 217.159 1768.61 217.193 1768.63 217.226C1768.64 217.245 1768.65 217.264 1768.66 217.282C1768.69 217.312 1768.71 217.341 1768.73 217.37C1768.74 217.389 1768.76 217.408 1768.77 217.426C1768.8 217.464 1768.83 217.5 1768.87 217.536C1768.89 217.557 1768.91 217.576 1768.93 217.596C1768.95 217.622 1768.98 217.647 1769.01 217.672C1769.03 217.687 1769.05 217.702 1769.07 217.717C1769.1 217.741 1769.13 217.764 1769.16 217.786C1769.17 217.798 1769.19 217.81 1769.21 217.821C1769.25 217.848 1769.29 217.873 1769.33 217.897C1769.34 217.901 1769.35 217.906 1769.36 217.911L1769.38 217.923C1769.38 217.924 1769.38 217.925 1769.38 217.927L1775.32 221.142L1773.72 224.105C1773.21 225.054 1773.56 226.239 1774.51 226.752C1774.66 226.836 1774.82 226.896 1774.98 226.935C1775.82 227.135 1776.72 226.759 1777.15 225.965L1782.22 216.604C1782.74 215.655 1782.38 214.47 1781.43 213.956C1780.49 213.442 1779.3 213.796 1778.79 214.744L1777.18 217.707L1772.21 215.013L1771.82 201.04C1772.49 201.108 1773.16 201.216 1773.82 201.376C1781.99 203.327 1787.05 211.562 1785.1 219.732C1783.15 227.902 1774.92 232.962 1766.75 231.011C1758.58 229.06 1753.52 220.825 1755.47 212.655C1756.94 206.48 1762.01 202.084 1767.92 201.146ZM1765.3 237.09C1753.77 234.338 1746.64 222.725 1749.39 211.203C1751.53 202.217 1759.07 195.9 1767.75 194.859L1767.81 197.214C1760.17 198.218 1753.56 203.815 1751.67 211.747C1749.22 222.013 1755.57 232.359 1765.84 234.81C1776.1 237.262 1786.45 230.905 1788.9 220.639C1791.35 210.374 1785 200.028 1774.73 197.576C1773.72 197.336 1772.72 197.181 1771.72 197.106L1771.65 194.752C1772.85 194.829 1774.07 195.008 1775.28 195.297C1786.8 198.048 1793.93 209.661 1791.18 221.184C1788.43 232.706 1776.82 239.841 1765.3 237.09Z" fill="#BB6BD9"/>
<path d="M1766.01 224.094C1763.24 222.597 1761.44 219.716 1761.31 216.575C1761.26 215.497 1760.35 214.661 1759.27 214.707C1758.2 214.753 1757.36 215.663 1757.41 216.741C1757.6 221.248 1760.18 225.381 1764.15 227.529C1764.3 227.612 1764.46 227.673 1764.62 227.712C1765.46 227.912 1766.36 227.535 1766.79 226.741C1767.31 225.792 1766.96 224.607 1766.01 224.094Z" fill="#BB6BD9"/>
</g>
<g clip-path="url(#clip1_1_348)">
<path d="M295.085 567.225L251.752 555.614C252.827 554.152 253.658 552.473 254.155 550.616L279.323 456.688C281.467 448.687 276.702 440.433 268.701 438.289L174.772 413.121C166.772 410.977 158.518 415.743 156.374 423.744L131.206 517.672C130.708 519.528 130.587 521.398 130.787 523.202L87.4547 511.591C79.4534 509.447 71.1998 514.212 69.0559 522.214L43.888 616.142C41.7441 624.143 46.5092 632.396 54.5105 634.54L148.439 659.708C152.257 660.731 156.13 660.179 159.372 658.454C161.317 661.568 164.396 663.984 168.214 665.007L262.141 690.175C270.143 692.319 278.397 687.554 280.541 679.553L305.709 585.625C307.852 577.623 303.087 569.369 295.085 567.225ZM157.59 646.608C156.813 649.51 153.818 651.239 150.916 650.461L56.9882 625.293C54.086 624.516 52.3573 621.522 53.135 618.619L78.3027 524.692C79.0805 521.789 82.0747 520.061 84.9769 520.838L178.905 546.006C181.807 546.784 183.536 549.778 182.758 552.681L157.591 646.608L157.59 646.608ZM144.306 526.824C141.404 526.046 139.675 523.052 140.453 520.149L165.621 426.222C166.398 423.319 169.392 421.591 172.295 422.368L266.223 447.536C269.125 448.314 270.853 451.308 270.076 454.21L244.908 548.139C244.13 551.041 241.136 552.77 238.234 551.992L144.306 526.824L144.306 526.824ZM271.293 677.075C270.516 679.977 267.521 681.706 264.619 680.928L170.691 655.76C167.789 654.982 166.06 651.988 166.838 649.086L192.005 555.159C192.783 552.256 195.777 550.527 198.68 551.305L292.608 576.473C295.511 577.251 297.239 580.245 296.461 583.147L271.294 677.075L271.293 677.075Z" fill="white"/>
<path d="M116.7 623.95L116.591 623.921C114.038 623.236 111.413 624.752 110.729 627.305C110.045 629.859 111.56 632.483 114.114 633.168L114.223 633.197C116.776 633.881 119.401 632.366 120.085 629.812C120.769 627.259 119.254 624.634 116.7 623.95Z" fill="white"/>
<path d="M170.752 551.255L89.4148 529.46C86.861 528.776 84.2367 530.291 83.5524 532.845L61.758 614.183C61.0738 616.736 62.589 619.361 65.1427 620.045L87.8802 626.138C90.434 626.822 93.0583 625.307 93.7426 622.753C94.4269 620.199 92.9117 617.575 90.358 616.891L72.2439 612.037L91.5605 539.946L163.651 559.263L144.334 631.353L129.985 627.509C127.431 626.824 124.807 628.34 124.123 630.893C123.439 633.447 124.954 636.071 127.507 636.756L146.48 641.839C149.034 642.524 151.658 641.008 152.342 638.455L174.137 557.117C174.821 554.563 173.306 551.939 170.752 551.255Z" fill="white"/>
<path d="M284.456 581.722L265.483 576.638C262.929 575.954 260.305 577.469 259.621 580.023C258.936 582.576 260.452 585.201 263.005 585.885L277.355 589.73L258.038 661.82L185.948 642.504L205.264 570.413L223.379 575.267C225.932 575.951 228.557 574.436 229.241 571.882C229.925 569.329 228.41 566.704 225.856 566.02L203.118 559.927C200.565 559.243 197.94 560.758 197.256 563.312L175.462 644.649C174.777 647.203 176.293 649.827 178.846 650.512L260.184 672.306C262.738 672.99 265.362 671.475 266.046 668.921L287.841 587.584C288.525 585.03 287.01 582.406 284.456 581.722Z" fill="white"/>
<path d="M252.199 573.078L252.09 573.048C249.536 572.364 246.912 573.879 246.227 576.433C245.543 578.987 247.058 581.611 249.612 582.295L249.721 582.325C252.275 583.009 254.899 581.494 255.583 578.94C256.268 576.386 254.752 573.762 252.199 573.078Z" fill="white"/>
<path d="M168.09 463.248C165.536 462.564 162.912 464.079 162.228 466.633L162.198 466.742C161.514 469.295 163.029 471.92 165.583 472.604C168.137 473.288 170.761 471.773 171.445 469.219L171.475 469.11C172.159 466.557 170.643 463.932 168.09 463.248Z" fill="white"/>
<path d="M258.071 452.786L176.733 430.991C174.179 430.307 171.555 431.822 170.871 434.376L165.787 453.349C165.103 455.902 166.618 458.527 169.172 459.211C171.725 459.895 174.35 458.38 175.034 455.826L178.879 441.477L250.97 460.794L231.653 532.884L159.563 513.567L164.417 495.453C165.101 492.9 163.586 490.275 161.032 489.591C158.478 488.907 155.854 490.422 155.169 492.976L149.077 515.713C148.393 518.267 149.908 520.891 152.462 521.575L233.799 543.37C236.353 544.054 238.977 542.539 239.662 539.985L261.456 458.648C262.14 456.094 260.625 453.47 258.071 452.786Z" fill="white"/>
<path d="M124.137 562.531C111.39 559.116 98.2405 566.707 94.8249 579.455C91.4093 592.202 99.0011 605.352 111.748 608.767C124.496 612.183 137.645 604.591 141.061 591.844C144.476 579.096 136.884 565.947 124.137 562.531ZM114.226 599.52C106.578 597.47 102.023 589.581 104.072 581.933C106.122 574.284 114.011 569.729 121.659 571.779C129.308 573.828 133.863 581.718 131.813 589.366C129.764 597.014 121.875 601.569 114.226 599.52Z" fill="white"/>
<path d="M250.341 635.487L240.544 598.926C240.101 597.274 238.811 595.983 237.159 595.541C235.507 595.098 233.745 595.571 232.536 596.78L205.569 623.747C204.359 624.957 203.887 626.719 204.33 628.371C204.773 630.023 206.063 631.313 207.715 631.756L244.552 641.626C244.556 641.627 244.558 641.628 244.562 641.629C247.115 642.313 249.74 640.798 250.424 638.244C250.676 637.301 250.629 636.348 250.341 635.487ZM218.2 624.653L233.442 609.411L239.022 630.232L218.2 624.653Z" fill="white"/>
<path d="M230.66 487.774C230.583 486.308 229.836 484.957 228.635 484.111L219.172 477.447L214.621 466.804C214.043 465.453 212.877 464.442 211.458 464.062C210.039 463.682 208.525 463.974 207.349 464.855L198.087 471.797L186.558 472.836C185.095 472.968 183.773 473.765 182.974 474.996C182.174 476.229 181.984 477.759 182.458 479.15L186.198 490.104L183.623 501.39C183.296 502.822 183.646 504.325 184.57 505.466C185.494 506.608 186.892 507.262 188.361 507.24L199.935 507.069L209.872 513.004C210.255 513.233 210.665 513.405 211.087 513.518C212.053 513.777 213.087 513.729 214.042 513.363C215.413 512.836 216.467 511.71 216.9 510.306L220.313 499.245L229.029 491.628C230.136 490.662 230.736 489.241 230.66 487.774ZM212.991 492.932C212.322 493.517 211.829 494.276 211.567 495.125L209.55 501.661L203.677 498.153C202.914 497.698 202.04 497.464 201.152 497.477L194.312 497.578L195.833 490.909C196.03 490.042 195.983 489.139 195.696 488.298L193.486 481.824L200.3 481.209C201.184 481.13 202.03 480.805 202.74 480.272L208.215 476.171L210.904 482.46C211.253 483.277 211.823 483.98 212.549 484.492L218.142 488.431L212.991 492.932Z" fill="white"/>
</g>
<g clip-path="url(#clip2_1_348)">
<path d="M175.287 143.212C176.406 141.273 176.704 139.014 176.124 136.852C175.545 134.69 174.158 132.882 172.219 131.763C170.281 130.644 168.022 130.346 165.86 130.926C163.697 131.505 161.89 132.892 160.771 134.831C159.651 136.769 159.354 139.028 159.933 141.19C160.513 143.353 161.9 145.16 163.838 146.279C165.777 147.398 168.036 147.696 170.198 147.117C172.36 146.537 174.168 145.15 175.287 143.212ZM165.514 143.376C164.351 142.704 163.519 141.62 163.172 140.323C162.824 139.025 163.002 137.67 163.674 136.507C164.345 135.344 165.43 134.511 166.727 134.164C168.025 133.816 169.38 133.994 170.543 134.666C171.706 135.338 172.538 136.422 172.886 137.72C173.234 139.017 173.055 140.372 172.384 141.535C171.712 142.699 170.628 143.531 169.33 143.878C168.033 144.226 166.678 144.047 165.514 143.376Z" fill="#40B7D5"/>
<path d="M196.807 155.637C198.073 153.445 198.298 150.779 197.477 147.715C194.952 138.292 182.716 126.08 166.303 116.604C165.253 115.998 164.197 115.411 163.137 114.843L159.763 102.249C159.629 101.748 159.269 101.337 158.79 101.136L128.146 88.3398C127.466 88.0557 126.68 88.2495 126.209 88.8175C125.856 89.2441 125.743 89.8062 125.881 90.3208C125.927 90.4911 126 90.6561 126.101 90.8094L136.999 107.335L136.522 108.161L134.947 107.252C133.908 106.652 132.693 106.493 131.528 106.806C130.364 107.118 129.391 107.862 128.791 108.902L127.737 110.727L120.858 106.755C119.852 106.175 118.678 106.021 117.552 106.323C116.425 106.625 115.485 107.345 114.904 108.351C114.324 109.356 114.17 110.53 114.472 111.657C114.774 112.783 115.494 113.723 116.5 114.304L123.379 118.276L122.326 120.101C121.725 121.141 121.567 122.355 121.879 123.52C122.191 124.684 122.935 125.657 123.975 126.257L125.549 127.166L125.072 127.992L105.312 126.817C104.576 126.774 103.897 127.216 103.641 127.907C103.517 128.242 103.505 128.597 103.593 128.924C103.687 129.274 103.893 129.593 104.196 129.823L130.599 149.963C131.012 150.278 131.548 150.384 132.05 150.25L144.643 146.876C145.666 147.509 146.702 148.13 147.752 148.736C158.162 154.746 168.868 158.855 177.897 160.306C178.784 160.449 179.646 160.564 180.483 160.651C180.491 160.652 180.499 160.653 180.507 160.654C188.686 161.508 194.427 159.76 196.807 155.637ZM139.996 105.79L131.924 93.5504L156.738 103.913L159.115 112.784C152.538 109.581 145.953 107.163 139.996 105.79ZM133.271 110.156L134.845 111.065L133.214 113.889L130.641 112.403L131.694 110.578C132.007 110.036 132.729 109.843 133.271 110.156ZM118.176 111.4C117.946 111.268 117.781 111.051 117.711 110.789C117.641 110.528 117.675 110.257 117.808 110.027C117.941 109.797 118.158 109.631 118.42 109.561C118.681 109.491 118.952 109.526 119.182 109.659L151.488 128.311C151.718 128.443 151.883 128.66 151.953 128.922C152.023 129.183 151.989 129.454 151.856 129.684C151.584 130.156 150.956 130.324 150.484 130.053C150.484 130.053 150.483 130.053 150.482 130.052L118.176 111.4ZM125.651 123.354C125.387 123.201 125.197 122.952 125.117 122.652C125.036 122.352 125.076 122.041 125.229 121.777L126.283 119.952L128.856 121.438L127.226 124.262L125.651 123.354ZM131.978 146.798L110.597 130.49L125.233 131.36C129.4 135.832 134.787 140.327 140.85 144.421L131.978 146.798ZM178.429 156.996C169.793 155.609 159.494 151.644 149.429 145.833C141.053 140.997 133.52 135.227 128.077 129.492L128.453 128.842L132.958 131.443C133.759 131.906 134.785 131.631 135.248 130.829C135.71 130.027 135.436 129.003 134.634 128.539L130.129 125.939L131.76 123.114L148.806 132.956C148.824 132.966 148.843 132.976 148.861 132.986C148.907 133.011 148.953 133.037 148.999 133.061C149.021 133.072 149.043 133.082 149.065 133.093C149.109 133.114 149.153 133.136 149.198 133.156C149.217 133.165 149.235 133.172 149.254 133.18C149.303 133.201 149.352 133.223 149.401 133.242C149.414 133.247 149.428 133.251 149.441 133.257C149.496 133.278 149.552 133.298 149.607 133.317C149.615 133.319 149.622 133.321 149.63 133.323C149.692 133.344 149.754 133.363 149.816 133.38C149.818 133.381 149.821 133.382 149.823 133.382C150.163 133.476 150.512 133.528 150.864 133.537C150.872 133.538 150.88 133.537 150.888 133.537C150.949 133.539 151.009 133.539 151.07 133.537C151.095 133.537 151.121 133.535 151.147 133.534C151.189 133.533 151.232 133.531 151.274 133.528C151.33 133.524 151.386 133.519 151.441 133.513C151.453 133.512 151.466 133.511 151.478 133.51C151.906 133.46 152.326 133.348 152.722 133.176C152.736 133.17 152.749 133.164 152.763 133.158C152.811 133.136 152.859 133.114 152.907 133.091C152.949 133.071 152.99 133.049 153.031 133.027C153.05 133.017 153.07 133.007 153.089 132.997C153.145 132.966 153.201 132.934 153.256 132.9C153.259 132.898 153.263 132.896 153.267 132.894C153.629 132.672 153.955 132.4 154.238 132.082C154.24 132.079 154.243 132.077 154.245 132.075C154.287 132.027 154.328 131.978 154.369 131.928C154.375 131.921 154.38 131.914 154.386 131.907C154.423 131.861 154.459 131.813 154.494 131.765C154.502 131.754 154.511 131.743 154.519 131.731C154.554 131.684 154.586 131.635 154.619 131.586C154.627 131.574 154.636 131.562 154.644 131.549C154.684 131.488 154.722 131.424 154.759 131.36C154.941 131.046 155.08 130.715 155.177 130.375C155.391 129.626 155.399 128.829 155.191 128.054C155.191 128.054 155.191 128.054 155.191 128.054C154.889 126.928 154.17 125.988 153.164 125.407L136.118 115.565L137.748 112.741L142.253 115.342C143.055 115.805 144.08 115.53 144.543 114.728C145.006 113.927 144.731 112.902 143.93 112.438L139.425 109.837L139.8 109.187C147.488 111.033 156.251 114.672 164.627 119.508C174.869 125.421 183.552 132.553 188.902 139.158C185.48 140.577 182.566 143.105 180.7 146.337C178.836 149.566 178.103 153.35 178.583 157.019C178.531 157.011 178.481 157.004 178.429 156.996ZM182.046 157.427C181.418 154.23 181.964 150.852 183.603 148.013C185.244 145.172 187.897 143.011 190.987 141.956C192.576 144.296 193.69 146.533 194.239 148.582C194.822 150.757 194.709 152.566 193.904 153.961C192.344 156.662 188.104 157.874 182.046 157.427Z" fill="#BB6BD9"/>
<path d="M139.452 133.256C139.915 132.454 139.641 131.429 138.839 130.966L138.804 130.946C138.003 130.484 136.978 130.758 136.515 131.56C136.283 131.961 136.236 132.417 136.347 132.832C136.458 133.246 136.728 133.618 137.128 133.85L137.163 133.869C137.964 134.332 138.989 134.057 139.452 133.256Z" fill="#40B7D5"/>
<path d="M148.748 117.155C149.211 116.353 148.936 115.328 148.135 114.865L148.1 114.846C147.299 114.383 146.274 114.658 145.811 115.459C145.579 115.86 145.532 116.317 145.643 116.731C145.754 117.146 146.024 117.517 146.424 117.749L146.459 117.769C147.26 118.232 148.285 117.957 148.748 117.155Z" fill="#40B7D5"/>
</g>
<g clip-path="url(#clip3_1_348)">
<path d="M1833.88 590.563L1845.22 580.413C1846.42 579.338 1846.88 577.66 1846.41 576.121C1842.72 564.235 1832.34 542.809 1824.93 533.113L1828.77 521.983C1829.15 520.877 1829.05 519.661 1828.48 518.638C1827.91 517.615 1826.94 516.88 1825.8 516.62C1781.97 506.59 1774.98 527.199 1769.88 542.247C1767.36 549.663 1765.64 554.195 1761.83 555.99C1761.82 555.995 1761.81 556.001 1761.79 556.006C1760.52 556.6 1759.01 556.889 1757.16 556.879C1738.32 556.783 1731.41 551.476 1724.09 545.856C1719.97 542.689 1715.71 539.413 1709.5 537.315C1692.13 531.446 1681.26 537.578 1672.53 542.506C1665.54 546.447 1660.03 549.56 1652.17 546.896C1650.59 546.362 1648.85 546.829 1647.75 548.086C1646.65 549.342 1646.42 551.137 1647.16 552.631C1652.48 563.344 1660.46 566.943 1666.22 568.073C1667.56 568.337 1668.84 568.482 1670.02 568.545L1650.3 613.999C1647.08 612.165 1643.88 610.268 1640.74 608.291C1638.83 607.097 1636.89 606.229 1634.96 605.711C1628.12 603.878 1621.57 606.616 1619.04 612.372C1616.93 617.171 1618.04 624.071 1625.26 628.667C1649.44 644.047 1675.83 655.629 1703.69 663.094C1707.04 663.991 1710.45 664.838 1713.83 665.612C1744.98 672.743 1776.73 674.549 1808.2 670.98C1818.54 669.806 1822.64 663.641 1823.01 658.718C1823.44 652.911 1819.41 647.849 1812.96 646.123C1810.52 645.469 1807.82 645.306 1804.92 645.64C1798.74 646.352 1792.55 646.833 1786.35 647.085L1800.18 576.693C1814.72 581.131 1828.62 590.764 1828.77 590.869C1830.33 591.965 1832.45 591.839 1833.88 590.563ZM1757.12 565.121C1757.58 565.124 1758.02 565.112 1758.45 565.091C1756.74 572.136 1753.16 576.778 1747.92 578.635C1741.24 581.005 1732.33 578.32 1726.26 572.106C1721.06 566.777 1718.85 560.025 1719.87 553.002C1727.38 558.758 1736.24 565.015 1757.12 565.121ZM1805.86 653.829C1807.72 653.614 1809.4 653.7 1810.83 654.084C1813.37 654.764 1814.92 656.343 1814.79 658.105C1814.65 660.029 1812.27 662.223 1807.27 662.79C1776.73 666.254 1745.91 664.5 1715.66 657.577C1712.38 656.826 1709.07 656.004 1705.82 655.132C1678.77 647.885 1653.16 636.641 1629.69 621.712C1626.91 619.95 1625.73 617.642 1626.58 615.689C1627.31 614.047 1629.52 612.786 1632.82 613.672C1633.96 613.977 1635.15 614.515 1636.35 615.271C1640.87 618.111 1645.48 620.801 1650.16 623.355C1650.25 623.407 1650.34 623.454 1650.43 623.5C1653.85 625.363 1657.31 627.149 1660.82 628.856C1660.87 628.887 1660.93 628.914 1660.99 628.941C1676.05 636.272 1691.82 642.167 1708.12 646.536C1711.24 647.372 1714.42 648.16 1717.56 648.881C1746.72 655.554 1776.43 657.219 1805.86 653.829ZM1669.31 623.769L1683.15 607.072C1691.24 610.601 1701.8 611.195 1712.05 599.9C1715.16 603.862 1719.64 608.753 1726.16 612.63C1735.75 618.333 1747.13 620.218 1760.05 618.249L1761.56 624.657C1761.56 624.658 1761.56 624.659 1761.56 624.66L1766.83 647.119C1750.95 646.53 1735.09 644.439 1719.4 640.847C1716.35 640.149 1713.28 639.385 1710.26 638.575C1696.15 634.796 1682.46 629.84 1669.31 623.769ZM1797.91 567.554C1796.82 567.306 1795.68 567.508 1794.74 568.115C1793.81 568.722 1793.16 569.682 1792.95 570.777L1777.91 647.285C1777.05 647.292 1776.19 647.294 1775.34 647.291L1767.18 612.558C1767.18 612.558 1767.18 612.557 1767.18 612.557L1765.72 606.309C1765.19 604.094 1762.98 602.719 1760.76 603.239C1758.55 603.759 1757.17 605.977 1757.69 608.193L1758.16 610.195C1732.3 613.872 1721.41 598.869 1716.04 591.467L1715.51 590.74C1714.73 589.674 1713.48 589.046 1712.16 589.051C1710.84 589.057 1709.61 589.694 1708.84 590.767C1701.23 601.355 1693.59 603.688 1684.08 598.335C1682.34 597.357 1680.16 597.762 1678.89 599.296L1661.66 620.084C1660.29 619.394 1658.92 618.691 1657.56 617.976L1680.32 565.531C1680.95 564.071 1680.69 562.378 1679.64 561.18C1678.6 559.981 1676.95 559.492 1675.42 559.923C1675.39 559.932 1672.04 560.817 1667.81 559.985C1664.8 559.394 1662.13 558.087 1659.84 556.081C1666.15 555.569 1671.42 552.593 1676.58 549.684C1685.01 544.925 1692.97 540.428 1706.86 545.124C1708.99 545.844 1710.84 546.742 1712.56 547.773C1709.58 558.647 1712.39 569.696 1720.36 577.865C1724.65 582.25 1729.93 585.289 1735.37 586.748C1740.57 588.14 1745.91 588.093 1750.68 586.403C1756.04 584.504 1765.1 578.865 1767.33 562.355C1773.05 558.548 1775.47 551.423 1777.69 544.895C1782.46 530.808 1786.99 517.47 1819.46 523.704L1816.39 532.589C1815.91 533.989 1816.21 535.541 1817.19 536.653C1822.96 543.222 1833.15 562.943 1837.71 576.069L1830.75 582.299C1825.09 578.674 1811.54 570.675 1797.91 567.554Z" fill="white"/>
<path d="M1812.38 544.723C1809.91 544.159 1807.49 545.573 1806.98 547.884C1806.46 550.194 1808.04 552.524 1810.51 553.088C1812.98 553.653 1815.4 552.238 1815.91 549.928C1816.43 547.618 1814.85 545.288 1812.38 544.723Z" fill="white"/>
<path d="M1763.01 594.791L1762.99 594.696C1762.47 592.479 1760.26 591.1 1758.04 591.616C1755.83 592.132 1754.45 594.348 1754.96 596.564L1754.98 596.659C1755.34 598.193 1756.51 599.326 1757.94 599.707C1758.57 599.877 1759.25 599.897 1759.93 599.738C1762.15 599.223 1763.53 597.007 1763.01 594.791Z" fill="white"/>
</g>
<defs>
<clipPath id="clip0_1_348">
<rect width="100" height="100" fill="white" transform="translate(1713.98 130.754) rotate(13.4312)"/>
</clipPath>
<clipPath id="clip1_1_348">
<rect width="245" height="245" fill="white" transform="translate(103.411 394) rotate(15)"/>
</clipPath>
<clipPath id="clip2_1_348">
<rect width="85.8218" height="85.8218" fill="white" transform="translate(177.897 74.6423) rotate(75)"/>
</clipPath>
<clipPath id="clip3_1_348">
<rect width="211" height="211" fill="white" transform="translate(1661.61 453) rotate(15)"/>
</clipPath>
</defs>
</svg>
