<svg width="1920" height="719" viewBox="0 0 1920 719" fill="none" xmlns="http://www.w3.org/2000/svg">
<path d="M577 702.392C405.944 674.539 129 614.946 0.5 619.647L0 0H1920V703.332C1868.5 657.729 1453 656.954 1284 684.997C1115 713.039 782 735.772 577 702.392Z" fill="#BD93EA"></path>
<g clip-path="url('#clip0_1_52')" filter="url('#filter0_f_1_52')">
<path d="M183.388 100.617C181.543 98.7727 179.091 97.7568 176.482 97.7568C173.874 97.7568 171.422 98.7727 169.577 100.617C167.733 102.462 166.717 104.914 166.717 107.522C166.717 110.131 167.733 112.583 169.577 114.428C171.422 116.272 173.874 117.288 176.482 117.288C179.091 117.288 181.543 116.272 183.388 114.428C185.232 112.583 186.248 110.131 186.248 107.522C186.248 104.914 185.232 102.462 183.388 100.617ZM180.625 111.666C179.519 112.772 178.047 113.382 176.482 113.382C174.917 113.382 173.446 112.772 172.339 111.666C171.232 110.559 170.623 109.087 170.623 107.522C170.623 105.957 171.232 104.486 172.339 103.379C173.446 102.272 174.917 101.663 176.482 101.663C178.047 101.663 179.519 102.273 180.625 103.379C181.732 104.486 182.342 105.957 182.342 107.522C182.342 109.087 181.732 110.559 180.625 111.666Z" fill="#BB6BD9"></path>
<path d="M203.862 80.1434C201.776 78.0576 198.844 77 195.147 77C183.781 77 166.346 87.0894 150.732 102.704C149.733 103.703 148.754 104.715 147.794 105.736H132.602C131.997 105.736 131.426 106.017 131.056 106.496L107.412 137.126C106.887 137.806 106.868 138.749 107.366 139.45C107.74 139.976 108.338 140.273 108.959 140.273C109.164 140.273 109.372 140.24 109.575 140.173L131.461 132.891L132.247 133.677L130.75 135.175C129.761 136.164 129.216 137.483 129.216 138.888C129.216 140.293 129.761 141.612 130.75 142.601L132.486 144.338L125.941 150.883C124.984 151.839 124.457 153.115 124.457 154.473C124.457 155.832 124.984 157.108 125.941 158.064C126.898 159.021 128.173 159.548 129.532 159.548C130.891 159.548 132.166 159.021 133.123 158.064L139.668 151.519L141.404 153.256C142.393 154.245 143.712 154.789 145.117 154.789C146.522 154.789 147.841 154.245 148.83 153.256L150.328 151.758L151.114 152.544L143.833 174.43C143.561 175.246 143.855 176.142 144.555 176.639C144.894 176.88 145.29 177 145.686 177C146.107 177 146.528 176.864 146.879 176.593L177.51 152.949C177.989 152.579 178.269 152.008 178.269 151.403V136.212C179.291 135.252 180.303 134.273 181.301 133.274C191.205 123.37 199.058 112.56 203.415 102.835C203.842 101.88 204.232 100.944 204.583 100.029C204.586 100.02 204.59 100.011 204.593 100.002C208.021 91.0539 207.784 84.0658 203.862 80.1434ZM130.626 129.052L114.416 134.445L133.562 109.642H144.264C138.675 116.078 133.968 122.761 130.626 129.052ZM133.512 137.937L135.01 136.44L137.697 139.127L135.248 141.575L133.512 139.839C132.996 139.324 132.996 138.453 133.512 137.937ZM130.36 155.302C130.142 155.521 129.847 155.641 129.532 155.641C129.216 155.641 128.922 155.521 128.703 155.302C128.484 155.083 128.364 154.789 128.364 154.473C128.364 154.158 128.484 153.864 128.703 153.645L159.439 122.909C159.658 122.69 159.952 122.57 160.267 122.57C160.583 122.57 160.877 122.69 161.096 122.909C161.544 123.358 161.545 124.115 161.098 124.564C161.097 124.565 161.096 124.566 161.096 124.566L130.36 155.302ZM146.068 150.493C145.817 150.745 145.479 150.883 145.117 150.883C144.755 150.883 144.417 150.745 144.166 150.493L142.43 148.757L144.879 146.308L147.566 148.996L146.068 150.493ZM174.363 150.443L149.56 169.589L154.953 153.379C161.244 150.038 167.927 145.33 174.363 139.741V150.443ZM199.849 101.237C195.683 110.539 188.115 120.935 178.539 130.511C170.57 138.48 161.805 145.218 153.709 149.614L153.09 148.995L157.376 144.709C158.139 143.947 158.139 142.71 157.376 141.947C156.613 141.185 155.377 141.185 154.614 141.947L150.328 146.233L147.64 143.546L163.858 127.328C163.876 127.311 163.892 127.293 163.909 127.275C163.951 127.231 163.994 127.188 164.035 127.142C164.054 127.121 164.072 127.1 164.09 127.078C164.128 127.035 164.166 126.992 164.202 126.948C164.217 126.929 164.231 126.91 164.246 126.892C164.285 126.843 164.323 126.795 164.36 126.745C164.369 126.732 164.378 126.718 164.388 126.705C164.428 126.649 164.468 126.592 164.506 126.535C164.511 126.528 164.516 126.52 164.52 126.512C164.562 126.449 164.602 126.385 164.641 126.32C164.642 126.317 164.644 126.315 164.645 126.312C164.853 125.958 165.017 125.581 165.133 125.187C165.136 125.178 165.138 125.169 165.141 125.16C165.16 125.092 165.179 125.025 165.196 124.956C165.203 124.927 165.209 124.898 165.215 124.868C165.226 124.82 165.237 124.772 165.247 124.723C165.26 124.659 165.27 124.595 165.28 124.531C165.283 124.517 165.285 124.503 165.287 124.489C165.361 123.991 165.361 123.485 165.287 122.988C165.285 122.97 165.281 122.953 165.279 122.936C165.269 122.875 165.259 122.814 165.247 122.753C165.237 122.7 165.225 122.648 165.213 122.595C165.207 122.57 165.202 122.545 165.196 122.52C165.178 122.448 165.159 122.375 165.137 122.304C165.136 122.299 165.135 122.294 165.134 122.289C164.994 121.815 164.785 121.365 164.513 120.951C164.511 120.948 164.509 120.945 164.507 120.942C164.466 120.879 164.423 120.818 164.379 120.758C164.373 120.749 164.367 120.74 164.36 120.732C164.319 120.676 164.277 120.622 164.233 120.568C164.223 120.555 164.214 120.542 164.203 120.529C164.16 120.476 164.115 120.425 164.07 120.373C164.058 120.36 164.048 120.347 164.036 120.334C163.978 120.271 163.919 120.208 163.858 120.147C163.559 119.848 163.229 119.591 162.875 119.379C162.096 118.913 161.202 118.664 160.267 118.664C160.267 118.664 160.267 118.664 160.267 118.664C158.908 118.664 157.633 119.19 156.676 120.147L140.459 136.365L137.771 133.677L142.058 129.392C142.82 128.629 142.82 127.392 142.058 126.629C141.295 125.867 140.059 125.867 139.295 126.629L135.009 130.915L134.391 130.297C138.787 122.201 145.525 113.435 153.494 105.466C163.238 95.722 173.883 88.1002 182.931 84.0713C183.496 88.3504 185.463 92.3927 188.537 95.4673C191.609 98.5394 195.647 100.505 199.922 101.072C199.897 101.127 199.874 101.182 199.849 101.237ZM201.425 97.2964C197.637 97.0392 194 95.4056 191.3 92.7052C188.596 90.0017 186.965 86.3644 186.709 82.5676C189.821 81.4848 192.675 80.9062 195.147 80.9062C197.77 80.9062 199.773 81.5789 201.1 82.9055C203.67 85.4758 203.755 90.6131 201.425 97.2964Z" fill="#BB6BD9"></path>
<path d="M161.376 137.947C160.613 137.184 159.376 137.184 158.613 137.947L158.581 137.979C157.818 138.742 157.818 139.979 158.581 140.741C158.962 141.123 159.462 141.313 159.962 141.313C160.462 141.313 160.961 141.122 161.343 140.741L161.376 140.709C162.138 139.946 162.138 138.709 161.376 137.947Z" fill="#BB6BD9"></path>
<path d="M146.058 122.628C145.295 121.866 144.058 121.866 143.295 122.628L143.263 122.661C142.5 123.424 142.5 124.66 143.263 125.423C143.644 125.804 144.144 125.995 144.644 125.995C145.144 125.995 145.643 125.804 146.025 125.423L146.058 125.39C146.82 124.628 146.82 123.391 146.058 122.628Z" fill="#BB6BD9"></path>
</g>
<path d="M273.062 539.84C271.382 539.84 270.016 541.207 270.016 542.887C270.016 544.567 271.382 545.934 273.062 545.934C274.742 545.934 276.109 544.567 276.109 542.887C276.109 541.207 274.742 539.84 273.062 539.84ZM273.062 543.903C272.502 543.903 272.047 543.447 272.047 542.887C272.047 542.327 272.502 541.872 273.062 541.872C273.622 541.872 274.078 542.327 274.078 542.887C274.078 543.447 273.622 543.903 273.062 543.903Z" fill="#BB6BD9"></path>
<path d="M264.937 539.84C263.257 539.84 261.891 541.207 261.891 542.887C261.891 544.567 263.257 545.934 264.937 545.934C266.618 545.934 267.984 544.567 267.984 542.887C267.984 541.207 266.618 539.84 264.937 539.84ZM264.937 543.903C264.377 543.903 263.922 543.447 263.922 542.887C263.922 542.327 264.377 541.872 264.937 541.872C265.498 541.872 265.953 542.327 265.953 542.887C265.953 543.447 265.498 543.903 264.937 543.903Z" fill="#BB6BD9"></path>
<path d="M286.428 552.901H273.793V551.215H278.994C279.554 551.215 280.009 550.761 280.009 550.2V546.036H281.126C282.862 546.036 284.275 544.623 284.275 542.887C284.275 541.151 282.862 539.739 281.126 539.739H280.009V537.281C280.009 536.72 279.554 536.266 278.994 536.266H272.148V535.148C272.148 533.412 270.736 532 269 532C267.264 532 265.851 533.412 265.851 535.148V536.266H259.006C258.445 536.266 257.99 536.72 257.99 537.281V539.739H256.873C255.137 539.739 253.725 541.151 253.725 542.887C253.725 544.623 255.137 546.036 256.873 546.036H257.99V550.2C257.99 550.761 258.445 551.215 259.006 551.215H264.206V552.901H251.572C251.011 552.901 250.556 553.356 250.556 553.917V570.187C250.556 570.748 251.011 571.203 251.572 571.203H255.289C255.85 571.203 256.305 570.748 256.305 570.187V560.279H257.991V582.984H257.99C257.99 583.545 258.445 584 259.006 584H266.562C267.123 584 267.578 583.545 267.578 582.984V571.203H270.422V582.984C270.422 583.545 270.876 584 271.437 584H278.993C279.554 584 280.009 583.545 280.009 582.984H280.009V560.279H281.695V570.187C281.695 570.748 282.15 571.203 282.711 571.203H286.428C286.989 571.203 287.444 570.748 287.444 570.187V553.917C287.444 553.356 286.989 552.901 286.428 552.901ZM280.009 541.77H281.126C281.742 541.77 282.243 542.271 282.243 542.887C282.243 543.503 281.742 544.005 281.126 544.005H280.009V541.77ZM257.99 544.005H256.873C256.257 544.005 255.756 543.503 255.756 542.887C255.756 542.271 256.257 541.77 256.873 541.77H257.99V544.005ZM254.273 569.172H252.587V554.933H254.273V569.172ZM257.99 558.247H256.305V554.933H257.99V558.247ZM267.883 535.148C267.883 534.532 268.384 534.031 269 534.031C269.616 534.031 270.117 534.532 270.117 535.148V536.266H267.883V535.148ZM260.022 549.184V538.297H277.978V549.184H260.022ZM266.237 551.215H271.762V552.901H266.237V551.215ZM265.547 580.283V581.969H260.022V580.283H265.547ZM260.022 578.252V571.203H265.547V578.252H260.022ZM260.022 569.172V554.933H277.978V569.172H260.022ZM272.453 578.252V571.203H277.978V578.252H272.453ZM277.978 580.283V581.969H272.453V580.283H277.978ZM281.695 558.247H280.009V554.933H281.695V558.247ZM285.412 569.172H283.726V554.933H285.412V569.172Z" fill="#BB6BD9"></path>
<path d="M265.034 559.097H265.008C264.448 559.097 263.993 559.551 263.993 560.112C263.993 560.673 264.448 561.128 265.008 561.128H265.034C265.595 561.128 266.05 560.673 266.05 560.112C266.05 559.551 265.595 559.097 265.034 559.097Z" fill="#BB6BD9"></path>
<path d="M272.991 559.096H268.154C267.593 559.096 267.139 559.551 267.139 560.112C267.139 560.673 267.593 561.128 268.154 561.128H272.991C273.552 561.128 274.007 560.673 274.007 560.112C274.007 559.551 273.552 559.096 272.991 559.096Z" fill="#BB6BD9"></path>
<path d="M269.845 562.976H265.008C264.448 562.976 263.993 563.431 263.993 563.992C263.993 564.553 264.448 565.008 265.008 565.008H269.845C270.406 565.008 270.861 564.553 270.861 563.992C270.861 563.431 270.406 562.976 269.845 562.976Z" fill="#BB6BD9"></path>
<path d="M272.991 562.977H272.965C272.404 562.977 271.949 563.432 271.949 563.992C271.949 564.553 272.404 565.008 272.965 565.008H272.991C273.552 565.008 274.006 564.553 274.006 563.992C274.006 563.432 273.552 562.977 272.991 562.977Z" fill="#BB6BD9"></path>
<g clip-path="url('#clip1_1_52')">
<path d="M1821.26 112.186L1799.24 90.1675C1798.47 89.4048 1797.24 89.405 1796.47 90.1675L1788.88 97.762L1787.36 96.2429C1786.07 94.9556 1784.36 94.2466 1782.53 94.2466C1780.7 94.2466 1778.98 94.9556 1777.69 96.2431C1776.41 97.5304 1775.7 99.2472 1775.7 101.077C1775.7 102.906 1776.41 104.623 1777.69 105.91L1779.21 107.429L1773 113.643L1765.4 106.048C1765.04 105.682 1764.54 105.476 1764.02 105.476C1763.51 105.476 1763.01 105.682 1762.64 106.048L1759.74 108.949C1759.19 109.498 1758.46 109.801 1757.67 109.801C1756.88 109.801 1756.15 109.498 1755.6 108.949C1754.46 107.806 1754.46 105.948 1755.6 104.805L1758.5 101.905C1759.26 101.142 1759.26 99.9056 1758.5 99.1427L1749.52 90.1673C1748.76 89.4048 1747.52 89.4048 1746.76 90.1673L1724.74 112.186C1723.62 113.31 1723 114.809 1723 116.405C1723 118.002 1723.62 119.5 1724.74 120.624L1768.78 164.662C1769.9 165.786 1771.4 166.405 1773 166.405C1774.6 166.405 1776.09 165.786 1777.22 164.662L1821.26 120.624C1823.58 118.298 1823.58 114.513 1821.26 112.186ZM1731.91 122.265L1736.19 117.979C1736.96 117.217 1736.96 115.98 1736.19 115.217C1735.43 114.455 1734.2 114.455 1733.43 115.217L1729.15 119.503L1727.5 117.861C1727.12 117.475 1726.91 116.958 1726.91 116.405C1726.91 115.852 1727.12 115.334 1727.5 114.949L1748.14 94.3109L1754.36 100.524L1752.84 102.043C1751.55 103.331 1750.84 105.047 1750.84 106.877C1750.84 108.707 1751.55 110.423 1752.84 111.711C1754.12 112.998 1755.84 113.707 1757.67 113.707C1759.5 113.707 1761.22 112.998 1762.5 111.711L1764.02 110.192L1770.24 116.405L1762.64 124C1762.28 124.366 1762.07 124.863 1762.07 125.381C1762.07 125.899 1762.28 126.396 1762.64 126.762L1765.54 129.662C1765.61 129.732 1765.68 129.805 1765.74 129.88C1765.77 129.918 1765.8 129.958 1765.83 129.997C1765.85 130.035 1765.88 130.073 1765.91 130.112C1765.95 130.174 1765.99 130.239 1766.03 130.304C1766.03 130.321 1766.05 130.337 1766.05 130.354C1766.28 130.773 1766.39 131.243 1766.39 131.733C1766.39 132.224 1766.28 132.695 1766.05 133.113C1766.05 133.13 1766.03 133.146 1766.03 133.163C1765.99 133.228 1765.95 133.293 1765.91 133.356C1765.88 133.394 1765.85 133.431 1765.83 133.469C1765.8 133.508 1765.77 133.549 1765.74 133.587C1765.68 133.662 1765.61 133.735 1765.54 133.805C1764.99 134.354 1764.26 134.657 1763.47 134.657C1762.68 134.657 1761.95 134.354 1761.4 133.805L1758.5 130.905C1757.74 130.142 1756.5 130.142 1755.74 130.905L1748.14 138.499L1731.91 122.265ZM1774.46 161.899C1774.07 162.285 1773.55 162.498 1773 162.498C1772.45 162.498 1771.93 162.285 1771.54 161.899L1750.9 141.262L1757.12 135.048L1758.64 136.567C1759.92 137.855 1761.64 138.564 1763.47 138.564C1765.3 138.564 1767.02 137.855 1768.3 136.567C1768.39 136.485 1768.47 136.401 1768.54 136.316C1768.56 136.293 1768.58 136.269 1768.6 136.245C1768.66 136.182 1768.72 136.119 1768.77 136.054C1768.79 136.03 1768.81 136.005 1768.83 135.981C1768.88 135.916 1768.93 135.85 1768.98 135.783C1768.99 135.761 1769.01 135.739 1769.03 135.716C1769.08 135.646 1769.13 135.575 1769.17 135.502C1769.19 135.484 1769.2 135.466 1769.21 135.448C1769.26 135.371 1769.31 135.293 1769.35 135.214C1769.36 135.199 1769.37 135.183 1769.38 135.168C1769.43 135.086 1769.47 135.003 1769.52 134.92C1769.53 134.906 1769.53 134.892 1769.54 134.879C1769.58 134.793 1769.63 134.707 1769.67 134.62C1769.67 134.605 1769.68 134.589 1769.69 134.574C1769.73 134.489 1769.76 134.403 1769.8 134.316C1769.81 134.294 1769.82 134.272 1769.82 134.25C1769.86 134.17 1769.89 134.091 1769.92 134.01C1769.93 133.974 1769.94 133.937 1769.95 133.9C1769.97 133.834 1770 133.769 1770.02 133.702C1770.03 133.64 1770.05 133.577 1770.07 133.514C1770.08 133.473 1770.09 133.433 1770.1 133.392C1770.37 132.305 1770.37 131.163 1770.1 130.075C1770.09 130.033 1770.08 129.991 1770.07 129.948C1770.05 129.887 1770.03 129.826 1770.02 129.766C1770 129.697 1769.97 129.63 1769.95 129.562C1769.94 129.527 1769.93 129.492 1769.92 129.458C1769.89 129.376 1769.86 129.295 1769.82 129.215C1769.82 129.194 1769.81 129.172 1769.8 129.151C1769.76 129.064 1769.73 128.977 1769.69 128.891C1769.68 128.877 1769.67 128.862 1769.67 128.848C1769.63 128.759 1769.58 128.673 1769.54 128.586C1769.53 128.573 1769.53 128.56 1769.52 128.548C1769.47 128.463 1769.43 128.379 1769.38 128.296C1769.37 128.282 1769.36 128.267 1769.35 128.253C1769.31 128.174 1769.26 128.095 1769.21 128.017C1769.2 128 1769.19 127.982 1769.17 127.965C1769.13 127.891 1769.07 127.82 1769.02 127.748C1769.01 127.727 1768.99 127.705 1768.98 127.684C1768.93 127.616 1768.88 127.55 1768.82 127.484C1768.8 127.46 1768.79 127.436 1768.77 127.413C1768.72 127.348 1768.66 127.285 1768.6 127.222C1768.58 127.198 1768.56 127.175 1768.54 127.151C1768.47 127.066 1768.39 126.982 1768.3 126.9L1766.79 125.381L1773 119.168L1780.59 126.763C1780.96 127.129 1781.46 127.335 1781.97 127.335C1782.49 127.335 1782.99 127.129 1783.36 126.763L1786.26 123.862C1786.81 123.313 1787.54 123.01 1788.33 123.01C1789.11 123.01 1789.85 123.313 1790.4 123.862C1790.95 124.412 1791.25 125.147 1791.25 125.934C1791.25 126.72 1790.95 127.456 1790.4 128.005L1787.5 130.906C1786.74 131.668 1786.74 132.905 1787.5 133.668L1795.09 141.262L1774.46 161.899ZM1818.49 117.862L1797.86 138.499L1791.64 132.286L1793.16 130.767C1794.45 129.48 1795.16 127.763 1795.16 125.933C1795.16 124.104 1794.45 122.387 1793.16 121.1C1791.87 119.813 1790.16 119.103 1788.33 119.103C1786.5 119.103 1784.78 119.813 1783.49 121.1L1781.97 122.619L1775.76 116.406L1783.36 108.811C1784.12 108.048 1784.12 106.812 1783.36 106.049L1780.46 103.148C1779.91 102.599 1779.6 101.863 1779.6 101.077C1779.6 100.291 1779.91 99.5548 1780.46 99.0054C1781 98.456 1781.74 98.1533 1782.53 98.1533C1783.31 98.1533 1784.05 98.456 1784.6 99.0054L1787.5 101.906C1788.26 102.669 1789.5 102.668 1790.26 101.906L1797.86 94.3113L1814.09 110.545L1809.8 114.831C1809.04 115.594 1809.04 116.831 1809.8 117.594C1810.18 117.975 1810.68 118.166 1811.18 118.166C1811.68 118.166 1812.18 117.975 1812.57 117.594L1816.85 113.308L1818.49 114.949C1819.3 115.752 1819.3 117.059 1818.49 117.862Z" fill="#9740D5"></path>
<path d="M1808.6 118.799C1807.84 118.036 1806.6 118.036 1805.84 118.799L1805.8 118.832C1805.04 119.595 1805.04 120.831 1805.8 121.594C1806.18 121.975 1806.68 122.166 1807.18 122.166C1807.68 122.166 1808.18 121.975 1808.57 121.594L1808.6 121.562C1809.36 120.799 1809.36 119.562 1808.6 118.799Z" fill="#9740D5"></path>
<path d="M1740.19 111.212C1739.43 110.452 1738.19 110.456 1737.43 111.22L1737.4 111.253C1736.64 112.018 1736.64 113.255 1737.4 114.016C1737.78 114.394 1738.28 114.584 1738.78 114.584C1739.28 114.584 1739.78 114.391 1740.17 114.008L1740.2 113.975C1740.96 113.21 1740.96 111.973 1740.19 111.212Z" fill="#9740D5"></path>
</g>
<g clip-path="url('#clip2_1_52')" filter="url('#filter1_f_1_52')">
<path d="M1819.07 434.24C1817.99 434.24 1817.12 435.114 1817.12 436.193V436.239C1817.12 437.318 1817.99 438.192 1819.07 438.192C1820.15 438.192 1821.03 437.318 1821.03 436.239V436.193C1821.03 435.114 1820.15 434.24 1819.07 434.24Z" fill="#9740D5"></path>
<path d="M1829.61 413.634C1828.02 413.634 1826.46 413.783 1824.94 414.065L1823.22 407.615C1823.22 407.615 1823.22 407.614 1823.21 407.614C1821.91 402.755 1828.15 398.564 1832.04 396.854C1836.46 394.907 1839.39 391.058 1839.87 386.558C1840.3 382.449 1838.57 378.566 1835.25 376.171C1833.46 374.882 1830.27 373.381 1825.29 373.608C1825.28 373.608 1825.27 373.609 1825.26 373.609C1821.89 373.768 1817.72 374.713 1812.61 377.042C1811.63 377.489 1811.19 378.647 1811.64 379.629C1812.09 380.61 1813.24 381.043 1814.23 380.596C1817.84 378.95 1821.22 377.959 1824.2 377.627C1824.64 378.653 1824.58 379.149 1824.52 379.338C1824.32 379.968 1823.05 380.558 1821.82 381.129C1820.45 381.762 1818.9 382.48 1817.7 383.691C1816.94 384.455 1816.94 385.692 1817.7 386.453C1818.08 386.833 1818.58 387.022 1819.08 387.022C1819.58 387.022 1820.08 386.831 1820.46 386.448C1821.18 385.731 1822.34 385.193 1823.46 384.673C1825.37 383.79 1827.53 382.789 1828.25 380.519C1828.53 379.64 1828.54 378.679 1828.29 377.622C1830.11 377.854 1831.69 378.424 1832.96 379.34C1835.14 380.906 1836.26 383.451 1835.98 386.148C1835.66 389.237 1833.59 391.902 1830.46 393.278C1824.96 395.699 1819.15 400.391 1819.13 406.218C1808.97 406.676 1798.8 410.286 1789.86 416.571C1786.41 416.357 1783.94 414.276 1783.22 411.107H1789.4C1792.2 411.107 1794.47 408.829 1794.47 406.029C1794.47 403.228 1792.2 400.951 1789.4 400.951H1772.73C1769.93 400.951 1767.65 403.228 1767.65 406.029C1767.65 408.829 1769.93 411.107 1772.73 411.107H1779.26C1779.62 413.48 1780.63 415.606 1782.2 417.225C1783.24 418.288 1784.46 419.102 1785.84 419.652C1785.84 419.655 1785.83 419.657 1785.83 419.659C1778.71 425.581 1772.93 433.002 1768.95 441.194C1768.23 441.053 1767.48 440.978 1766.72 440.978C1760.26 440.978 1755 446.235 1755 452.696C1755 459.158 1760.26 464.415 1766.72 464.415C1773.18 464.415 1778.44 459.158 1778.44 452.696C1778.44 448.383 1776.09 444.609 1772.61 442.574C1781.79 423.94 1800.43 410.748 1819.84 410.101L1821.17 415.077C1811.31 418.564 1804.22 427.981 1804.22 439.024C1804.22 453.025 1815.61 464.415 1829.61 464.415C1843.61 464.415 1855 453.025 1855 439.024C1855 425.024 1843.61 413.634 1829.61 413.634ZM1772.73 407.201C1772.09 407.201 1771.56 406.664 1771.56 406.029C1771.56 405.394 1772.09 404.857 1772.73 404.857H1789.4C1790.03 404.857 1790.57 405.394 1790.57 406.029C1790.57 406.664 1790.03 407.201 1789.4 407.201H1772.73ZM1774.53 452.696C1774.53 457.004 1771.03 460.509 1766.72 460.509C1762.41 460.509 1758.91 457.004 1758.91 452.696C1758.91 448.389 1762.41 444.884 1766.72 444.884C1766.91 444.884 1767.1 444.893 1767.29 444.907C1766.32 447.288 1765.49 449.72 1764.83 452.191C1764.55 453.233 1765.17 454.304 1766.21 454.583C1766.38 454.628 1766.55 454.65 1766.72 454.65C1767.58 454.65 1768.37 454.074 1768.61 453.202C1769.25 450.793 1770.05 448.443 1770.99 446.161C1773.12 447.559 1774.53 449.965 1774.53 452.696ZM1823.81 424.939L1827.72 439.53C1827.73 439.554 1827.74 439.577 1827.75 439.601C1827.75 439.626 1827.76 439.651 1827.77 439.675C1827.79 439.725 1827.81 439.773 1827.83 439.82C1827.83 439.826 1827.83 439.831 1827.83 439.836C1827.86 439.892 1827.89 439.947 1827.92 440C1827.92 440.003 1827.92 440.005 1827.92 440.008C1827.95 440.056 1827.98 440.103 1828.01 440.149C1828.02 440.16 1828.03 440.171 1828.04 440.182C1828.06 440.218 1828.09 440.253 1828.12 440.287C1828.13 440.301 1828.15 440.316 1828.16 440.33C1828.18 440.359 1828.21 440.386 1828.24 440.414C1828.25 440.429 1828.27 440.445 1828.29 440.46C1828.31 440.485 1828.34 440.508 1828.37 440.531C1828.39 440.546 1828.4 440.561 1828.42 440.576C1828.46 440.605 1828.5 440.633 1828.54 440.66C1828.57 440.676 1828.59 440.69 1828.62 440.704C1828.65 440.723 1828.68 440.742 1828.71 440.759C1828.73 440.77 1828.76 440.78 1828.78 440.79C1828.81 440.806 1828.85 440.822 1828.88 440.836C1828.9 440.844 1828.92 440.851 1828.94 440.858C1828.99 440.875 1829.03 440.89 1829.08 440.903C1829.09 440.905 1829.1 440.909 1829.1 440.911L1829.13 440.918C1829.13 440.919 1829.13 440.919 1829.14 440.92L1835.66 442.668L1834.79 445.922C1834.51 446.964 1835.13 448.035 1836.17 448.314C1836.34 448.36 1836.51 448.381 1836.68 448.381C1837.54 448.381 1838.33 447.806 1838.56 446.933L1841.32 436.652C1841.59 435.61 1840.98 434.539 1839.93 434.259C1838.89 433.98 1837.82 434.599 1837.54 435.64L1836.67 438.895L1831.2 437.43L1827.59 423.929C1828.25 423.841 1828.92 423.791 1829.61 423.791C1838.01 423.791 1844.84 430.625 1844.84 439.025C1844.84 447.425 1838.01 454.259 1829.61 454.259C1821.21 454.259 1814.37 447.425 1814.37 439.025C1814.37 432.676 1818.28 427.224 1823.81 424.939ZM1829.61 460.509C1817.76 460.509 1808.13 450.871 1808.13 439.024C1808.13 429.786 1813.99 421.892 1822.19 418.863L1822.8 421.139C1815.6 423.891 1810.47 430.87 1810.47 439.025C1810.47 449.579 1819.06 458.165 1829.61 458.165C1840.16 458.165 1848.75 449.579 1848.75 439.025C1848.75 428.471 1840.16 419.884 1829.61 419.884C1828.57 419.884 1827.56 419.968 1826.57 420.127L1825.96 417.852C1827.15 417.648 1828.37 417.54 1829.61 417.54C1841.46 417.54 1851.09 427.178 1851.09 439.025C1851.09 450.871 1841.46 460.509 1829.61 460.509Z" fill="#9740D5"></path>
<path d="M1827.28 447.703C1824.25 446.889 1821.83 444.505 1820.97 441.481C1820.67 440.444 1819.59 439.842 1818.55 440.137C1817.52 440.432 1816.91 441.512 1817.21 442.55C1818.44 446.888 1821.92 450.309 1826.27 451.476C1826.44 451.521 1826.61 451.543 1826.78 451.543C1827.64 451.543 1828.43 450.967 1828.66 450.095C1828.94 449.053 1828.32 447.982 1827.28 447.703Z" fill="#9740D5"></path>
</g>
<path d="M990.047 679.484H989.07V664.592C989.07 661.124 986.451 658.276 983.23 658.244L960.09 658.012L954.732 645.511C954.193 644.252 952.551 640.421 947.505 640.421H911.04C910.593 635.54 908.504 630.626 905.206 626.687C906.103 625.658 906.648 624.313 906.648 622.844C906.648 619.613 904.02 616.984 900.789 616.984C897.558 616.984 894.929 619.613 894.929 622.844C894.929 626.075 897.558 628.703 900.789 628.703C901.106 628.703 901.417 628.677 901.721 628.628C904.72 631.96 906.653 636.202 907.117 640.421H901.811C898.016 640.421 894.929 643.509 894.929 647.303V679.484H893.953C892.874 679.484 892 680.359 892 681.437V684.367C892 687.06 894.19 689.25 896.882 689.25H903.885C904.817 694.785 909.641 699.016 915.438 699.016C921.234 699.016 926.058 694.785 926.991 689.25H958.963C959.895 694.785 964.719 699.016 970.515 699.016C976.312 699.016 981.135 694.785 982.068 689.25H987.117C989.81 689.25 992 687.06 992 684.367V681.438C992 680.359 991.125 679.484 990.047 679.484ZM900.789 624.797C899.712 624.797 898.836 623.921 898.836 622.844C898.836 621.767 899.712 620.891 900.789 620.891C901.866 620.891 902.742 621.767 902.742 622.844C902.742 623.921 901.866 624.797 900.789 624.797ZM903.885 685.344H896.882C896.353 685.344 895.906 684.896 895.906 684.367V683.391H904.391C904.168 684.019 903.998 684.672 903.885 685.344ZM923.25 687.302C923.247 691.608 919.744 695.11 915.438 695.11C911.13 695.11 907.625 691.605 907.625 687.297C907.625 682.989 911.13 679.484 915.438 679.484C919.744 679.484 923.247 682.986 923.25 687.292C923.25 687.294 923.25 687.295 923.25 687.297C923.25 687.299 923.25 687.3 923.25 687.302ZM970.515 695.11C966.209 695.11 962.706 691.608 962.703 687.302C962.703 687.3 962.703 687.299 962.703 687.297C962.703 687.295 962.703 687.294 962.703 687.292C962.706 682.986 966.209 679.484 970.515 679.484C974.823 679.484 978.328 682.989 978.328 687.297C978.328 691.605 974.823 695.11 970.515 695.11ZM970.515 675.578C964.719 675.578 959.895 679.809 958.963 685.344H926.991C926.058 679.809 921.234 675.578 915.438 675.578C911.975 675.578 908.859 677.089 906.712 679.484H898.836V675.578H900.128C901.206 675.578 902.081 674.704 902.081 673.625C902.081 672.546 901.206 671.672 900.128 671.672H898.836V647.304C898.836 645.663 900.17 644.328 901.811 644.328H947.505C949.306 644.328 950.291 645.066 951.142 647.051L957.001 660.723C957.306 661.434 958.003 661.898 958.777 661.906L983.191 662.15C984.279 662.161 985.164 663.256 985.164 664.592V671.672H983.872C982.794 671.672 981.919 672.546 981.919 673.625C981.919 674.704 982.794 675.578 983.872 675.578H985.164V679.484H979.241C977.094 677.089 973.978 675.578 970.515 675.578ZM988.094 684.367C988.094 684.896 987.646 685.344 987.117 685.344H982.068C981.955 684.672 981.785 684.019 981.562 683.39H988.094V684.367Z" fill="#BB6BD9"></path>
<path d="M953.582 659.184L948.712 647.821C948.656 647.692 948.581 647.521 948.492 647.346C948.159 646.693 947.487 646.281 946.753 646.281H902.862C901.784 646.281 900.909 647.156 900.909 648.234V659.953C900.909 661.032 901.784 661.906 902.862 661.906H933.597V668.365C933.597 669.443 934.471 670.318 935.55 670.318C936.629 670.318 937.503 669.443 937.503 668.365V661.906H951.786C952.443 661.906 953.055 661.576 953.417 661.028C953.778 660.48 953.84 659.787 953.582 659.184ZM933.597 658H904.815V650.187H933.597V658ZM937.503 658V650.187H945.476L948.824 658H937.503Z" fill="#BB6BD9"></path>
<path d="M935.552 672.023C934.473 672.023 933.599 672.897 933.599 673.976V674.022C933.599 675.101 934.473 675.975 935.552 675.975C936.631 675.975 937.505 675.101 937.505 674.022V673.976C937.505 672.897 936.631 672.023 935.552 672.023Z" fill="#BB6BD9"></path>
<path d="M915.438 685.344C914.362 685.344 913.484 686.221 913.484 687.297C913.484 688.373 914.362 689.25 915.438 689.25C916.513 689.25 917.391 688.373 917.391 687.297C917.391 686.221 916.513 685.344 915.438 685.344Z" fill="#BB6BD9"></path>
<path d="M970.516 685.344C969.44 685.344 968.562 686.221 968.562 687.297C968.562 688.373 969.44 689.25 970.516 689.25C971.591 689.25 972.469 688.373 972.469 687.297C972.469 686.221 971.591 685.344 970.516 685.344Z" fill="#BB6BD9"></path>
<path d="M961.184 665.716H961.138C960.059 665.716 959.185 666.59 959.185 667.669C959.185 668.747 960.059 669.622 961.138 669.622H961.184C962.262 669.622 963.137 668.747 963.137 667.669C963.137 666.59 962.262 665.716 961.184 665.716Z" fill="#BB6BD9"></path>
<path d="M974.807 665.715H966.793C965.714 665.715 964.84 666.59 964.84 667.668C964.84 668.747 965.714 669.621 966.793 669.621H974.807C975.886 669.621 976.76 668.747 976.76 667.668C976.76 666.59 975.886 665.715 974.807 665.715Z" fill="#BB6BD9"></path>
<g clip-path="url('#clip3_1_52')">
<path d="M1697.18 285.278C1696.64 285.278 1696.21 285.715 1696.21 286.254V286.277C1696.21 286.817 1696.64 287.254 1697.18 287.254C1697.72 287.254 1698.16 286.817 1698.16 286.277V286.254C1698.16 285.715 1697.72 285.278 1697.18 285.278Z" fill="white"></path>
<path d="M1701.78 278.98C1701.78 278.94 1701.78 278.9 1701.77 278.86C1701.77 278.858 1701.77 278.856 1701.77 278.853C1701.77 278.817 1701.76 278.782 1701.75 278.746C1701.75 278.736 1701.75 278.727 1701.74 278.718C1701.73 278.689 1701.72 278.661 1701.71 278.632C1701.71 278.623 1701.71 278.613 1701.7 278.604C1701.69 278.569 1701.67 278.534 1701.65 278.5C1701.65 278.5 1701.65 278.5 1701.65 278.5C1701.63 278.466 1701.61 278.434 1701.59 278.403C1701.58 278.395 1701.57 278.387 1701.57 278.38C1701.55 278.356 1701.53 278.333 1701.51 278.312C1701.5 278.305 1701.49 278.298 1701.49 278.291C1701.46 278.265 1701.43 278.241 1701.41 278.218C1701.4 278.217 1701.4 278.215 1701.4 278.214C1701.37 278.189 1701.33 278.167 1701.3 278.147C1701.3 278.146 1701.3 278.144 1701.29 278.143L1680.49 266.131C1680.19 265.956 1679.81 265.956 1679.51 266.131L1658.71 278.143C1658.7 278.144 1658.7 278.146 1658.7 278.147C1658.67 278.167 1658.63 278.189 1658.6 278.214C1658.6 278.215 1658.6 278.216 1658.6 278.218C1658.57 278.24 1658.54 278.265 1658.51 278.291C1658.51 278.298 1658.5 278.305 1658.49 278.312C1658.47 278.333 1658.45 278.356 1658.43 278.38C1658.43 278.388 1658.42 278.395 1658.41 278.403C1658.39 278.434 1658.37 278.466 1658.35 278.5C1658.35 278.5 1658.35 278.5 1658.35 278.5C1658.33 278.534 1658.31 278.569 1658.3 278.604C1658.29 278.614 1658.29 278.623 1658.29 278.633C1658.28 278.661 1658.27 278.689 1658.26 278.718C1658.26 278.727 1658.25 278.737 1658.25 278.746C1658.24 278.782 1658.23 278.817 1658.23 278.853C1658.23 278.856 1658.23 278.858 1658.23 278.86C1658.22 278.9 1658.22 278.94 1658.22 278.98C1658.22 278.983 1658.22 278.986 1658.22 278.988V303.012C1658.22 303.361 1658.4 303.683 1658.71 303.858L1679.51 315.869C1679.51 315.871 1679.52 315.872 1679.52 315.873C1679.55 315.893 1679.59 315.91 1679.63 315.926C1679.63 315.927 1679.63 315.928 1679.63 315.929C1679.67 315.942 1679.7 315.953 1679.74 315.963C1679.75 315.966 1679.76 315.968 1679.77 315.971C1679.8 315.978 1679.82 315.983 1679.85 315.988C1679.86 315.989 1679.87 315.991 1679.88 315.992C1679.92 315.997 1679.96 316 1680 316C1680.04 316 1680.08 315.997 1680.12 315.992C1680.13 315.991 1680.14 315.989 1680.15 315.988C1680.18 315.983 1680.21 315.978 1680.23 315.971C1680.24 315.968 1680.25 315.966 1680.26 315.963C1680.3 315.953 1680.33 315.942 1680.37 315.929C1680.37 315.928 1680.37 315.927 1680.37 315.926C1680.41 315.91 1680.45 315.893 1680.48 315.873C1680.48 315.872 1680.49 315.871 1680.49 315.869L1701.29 303.858C1701.6 303.683 1701.78 303.361 1701.78 303.012V278.988C1701.78 278.985 1701.78 278.983 1701.78 278.98ZM1697.18 288.106C1696.65 288.106 1696.21 288.544 1696.21 289.083V292.527L1691.38 295.314V285.558L1699.83 280.68V290.436L1698.16 291.399V289.083C1698.16 288.544 1697.72 288.106 1697.18 288.106ZM1680 268.104L1688.45 272.982L1680 277.861L1671.55 272.982L1680 268.104ZM1668.62 307.326L1660.17 302.448V292.691L1661.97 293.727V297.171C1661.97 297.71 1662.4 298.147 1662.94 298.147C1663.48 298.147 1663.92 297.71 1663.92 297.171V294.855L1668.62 297.57V307.326ZM1668.62 295.314L1660.17 290.436V280.68L1668.62 285.558V295.314ZM1661.15 278.988L1669.6 274.11L1678.05 278.988L1669.6 283.866L1661.15 278.988ZM1679.02 313.332L1670.57 308.454V298.697L1679.02 303.576V313.332ZM1679.02 301.32L1670.57 296.442V286.686L1679.02 291.564V301.32ZM1680 289.872L1671.55 284.994L1680 280.116L1688.45 284.994L1680 289.872ZM1689.43 308.454L1680.98 313.332V303.576L1689.43 298.697V308.454ZM1689.43 296.442L1680.98 301.32V291.564L1689.43 286.685V296.442ZM1681.95 278.988L1690.4 274.11L1698.85 278.988L1690.4 283.866L1681.95 278.988ZM1699.83 302.448L1691.38 307.326V297.57L1699.83 292.691V302.448Z" fill="white"></path>
<path d="M1662.94 299C1662.4 299 1661.97 299.437 1661.97 299.977V300C1661.97 300.539 1662.4 300.976 1662.94 300.976C1663.48 300.976 1663.92 300.539 1663.92 300V299.977C1663.92 299.437 1663.48 299 1662.94 299Z" fill="white"></path>
</g>
<g clip-path="url('#clip4_1_52')">
<path d="M219.868 380.046H201.557C201.827 379.356 201.977 378.607 201.977 377.822V338.132C201.977 334.751 199.226 332 195.845 332H156.155C152.774 332 150.023 334.751 150.023 338.132V377.822C150.023 378.607 150.173 379.356 150.442 380.047H132.132C128.751 380.046 126 382.797 126 386.178V425.869C126 429.249 128.751 432 132.132 432H171.822C173.435 432 174.904 431.373 176 430.351C177.096 431.373 178.565 432 180.178 432H219.869C223.25 432 226 429.25 226 425.869V386.178C226 382.797 223.25 380.046 219.868 380.046ZM174.046 425.869C174.046 427.095 173.048 428.093 171.822 428.093H132.132C130.905 428.093 129.907 427.095 129.907 425.869V386.178C129.907 384.952 130.905 383.954 132.132 383.954H171.822C173.049 383.954 174.046 384.952 174.046 386.178V425.869H174.046ZM156.155 380.046C154.928 380.046 153.931 379.048 153.931 377.822V338.132C153.931 336.905 154.928 335.907 156.155 335.907H195.845C197.071 335.907 198.069 336.905 198.069 338.132V377.822C198.069 379.049 197.071 380.046 195.845 380.046H156.155V380.046ZM222.093 425.869C222.093 427.095 221.095 428.093 219.868 428.093H180.178C178.952 428.093 177.954 427.095 177.954 425.869V386.178C177.954 384.952 178.952 383.954 180.178 383.954H219.869C221.095 383.954 222.093 384.952 222.093 386.178V425.869H222.093Z" fill="white"></path>
<path d="M155.532 421.255H155.486C154.406 421.255 153.532 422.13 153.532 423.209C153.532 424.288 154.406 425.163 155.486 425.163H155.532C156.611 425.163 157.485 424.288 157.485 423.209C157.485 422.13 156.611 421.255 155.532 421.255Z" fill="white"></path>
<path d="M169.162 386.885H134.792C133.713 386.885 132.839 387.759 132.839 388.838V423.208C132.839 424.288 133.713 425.162 134.792 425.162H144.4C145.479 425.162 146.354 424.288 146.354 423.208C146.354 422.129 145.479 421.255 144.4 421.255H136.746V390.792H167.208V421.255H161.145C160.066 421.255 159.191 422.129 159.191 423.208C159.191 424.288 160.066 425.162 161.145 425.162H169.162C170.241 425.162 171.116 424.288 171.116 423.208V388.838C171.116 387.759 170.241 386.885 169.162 386.885Z" fill="white"></path>
<path d="M217.209 386.885H209.192C208.113 386.885 207.238 387.759 207.238 388.838C207.238 389.917 208.113 390.792 209.192 390.792H215.255V421.255H184.793V390.792H192.447C193.526 390.792 194.401 389.917 194.401 388.838C194.401 387.759 193.526 386.885 192.447 386.885H182.839C181.76 386.885 180.885 387.759 180.885 388.838V423.208C180.885 424.287 181.76 425.162 182.839 425.162H217.209C218.288 425.162 219.163 424.287 219.163 423.208V388.838C219.163 387.759 218.288 386.885 217.209 386.885Z" fill="white"></path>
<path d="M203.578 386.884H203.532C202.453 386.884 201.578 387.759 201.578 388.838C201.578 389.917 202.453 390.792 203.532 390.792H203.578C204.657 390.792 205.532 389.917 205.532 388.838C205.532 387.759 204.657 386.884 203.578 386.884Z" fill="white"></path>
<path d="M158.815 352.469C157.736 352.469 156.862 353.343 156.862 354.422V354.468C156.862 355.548 157.736 356.422 158.815 356.422C159.895 356.422 160.769 355.548 160.769 354.468V354.422C160.769 353.343 159.894 352.469 158.815 352.469Z" fill="white"></path>
<path d="M193.186 338.838H158.816C157.736 338.838 156.862 339.713 156.862 340.792V348.809C156.862 349.888 157.736 350.763 158.816 350.763C159.895 350.763 160.769 349.888 160.769 348.809V342.746H191.232V373.208H160.77V365.554C160.77 364.475 159.895 363.6 158.816 363.6C157.737 363.6 156.862 364.475 156.862 365.554V375.162C156.862 376.241 157.737 377.116 158.816 377.116H193.186C194.265 377.116 195.14 376.241 195.14 375.162V340.792C195.14 339.713 194.265 338.838 193.186 338.838Z" fill="white"></path>
<path d="M151.975 396.255C146.589 396.255 142.207 400.637 142.207 406.024C142.207 411.41 146.589 415.792 151.975 415.792C157.362 415.792 161.744 411.41 161.744 406.024C161.744 400.637 157.362 396.255 151.975 396.255ZM151.975 411.885C148.743 411.885 146.114 409.255 146.114 406.024C146.114 402.792 148.743 400.162 151.975 400.162C155.207 400.162 157.836 402.792 157.836 406.024C157.836 409.255 155.207 411.885 151.975 411.885Z" fill="white"></path>
<path d="M209.439 411.686L201.714 398.306C201.365 397.702 200.72 397.329 200.022 397.329C199.324 397.329 198.679 397.702 198.33 398.306L190.547 411.787C190.198 412.392 190.198 413.136 190.547 413.741C190.896 414.345 191.541 414.718 192.239 414.718H207.805C207.806 414.718 207.808 414.718 207.809 414.718C208.888 414.718 209.763 413.843 209.763 412.764C209.763 412.365 209.643 411.995 209.439 411.686ZM195.623 410.81L200.022 403.19L204.421 410.81H195.623Z" fill="white"></path>
<path d="M186.075 355.528C185.89 354.958 185.453 354.505 184.89 354.298L180.455 352.67L177.536 348.955C177.166 348.483 176.599 348.208 176 348.208C175.4 348.208 174.834 348.483 174.463 348.955L171.545 352.67L167.11 354.298C166.547 354.504 166.11 354.958 165.925 355.528C165.739 356.099 165.826 356.722 166.16 357.22L168.792 361.144L168.969 365.865C168.991 366.465 169.288 367.02 169.773 367.373C170.258 367.725 170.878 367.835 171.455 367.671L176 366.381L180.544 367.671C180.72 367.721 180.9 367.746 181.078 367.746C181.486 367.746 181.889 367.618 182.226 367.372C182.711 367.02 183.008 366.464 183.03 365.865L183.208 361.144L185.839 357.22C186.173 356.722 186.26 356.099 186.075 355.528ZM179.654 359.428C179.452 359.73 179.338 360.081 179.324 360.443L179.219 363.233L176.533 362.471C176.185 362.372 175.815 362.372 175.466 362.471L172.78 363.233L172.675 360.443C172.662 360.081 172.548 359.73 172.345 359.428L170.791 357.109L173.412 356.147C173.752 356.023 174.051 355.805 174.275 355.52L176 353.325L177.725 355.52C177.949 355.805 178.248 356.023 178.588 356.148L181.209 357.11L179.654 359.428Z" fill="white"></path>
</g>
<g clip-path="url('#clip5_1_52')" filter="url('#filter2_f_1_52')">
<path d="M671.734 625.844L675.681 619.806C676.1 619.166 676.106 618.341 675.699 617.695C672.553 612.706 665.175 604.17 660.591 600.641L660.985 595.075C661.024 594.522 660.827 593.978 660.441 593.579C660.056 593.181 659.518 592.964 658.965 592.985C637.674 593.769 637.001 604.061 636.51 611.576C636.268 615.279 636.035 617.565 634.51 618.855C634.505 618.858 634.502 618.862 634.497 618.866C633.986 619.294 633.331 619.612 632.484 619.834C623.845 622.101 620.031 620.519 615.993 618.844C613.717 617.9 611.363 616.923 608.264 616.724C599.592 616.168 595.368 620.308 591.975 623.636C589.262 626.297 587.118 628.398 583.197 628.142C582.408 628.091 581.665 628.52 581.316 629.229C580.968 629.939 581.081 630.789 581.605 631.382C585.355 635.634 589.45 636.302 592.224 636.114C592.871 636.07 593.474 635.979 594.024 635.863L590.572 659.09C588.87 658.646 587.175 658.169 585.492 657.65C584.475 657.337 583.479 657.178 582.53 657.178C579.173 657.178 576.512 659.235 576.06 662.18C575.683 664.636 577.036 667.659 580.908 668.876C593.864 672.951 607.364 675.017 621.032 675.017C622.675 675.017 624.34 674.986 625.982 674.926C641.12 674.368 655.877 671.301 669.842 665.807C674.435 664.001 675.556 660.676 675.12 658.377C674.606 655.665 672.137 653.843 668.976 653.843C667.778 653.843 666.519 654.101 665.233 654.609C662.491 655.693 659.715 656.673 656.91 657.548L654.608 623.627C661.808 623.876 669.351 626.581 669.432 626.61C670.284 626.92 671.238 626.603 671.734 625.844ZM633.476 623.612C633.684 623.557 633.885 623.498 634.081 623.435C634.162 626.87 633.093 629.434 630.923 630.926C628.153 632.831 623.745 632.695 620.205 630.595C617.169 628.794 615.331 625.973 614.935 622.634C619.082 624.347 623.903 626.125 633.476 623.612ZM666.669 658.242C667.496 657.915 668.272 657.75 668.976 657.75C670.221 657.75 671.126 658.281 671.282 659.104C671.452 660.003 670.631 661.299 668.413 662.172C654.858 667.504 640.534 670.481 625.838 671.022C624.244 671.081 622.627 671.11 621.032 671.11C607.762 671.11 594.656 669.105 582.079 665.15C580.595 664.683 579.768 663.772 579.921 662.773C580.05 661.933 580.907 661.085 582.53 661.085C583.088 661.085 583.697 661.185 584.34 661.384C586.759 662.129 589.198 662.796 591.654 663.391C591.7 663.404 591.747 663.414 591.795 663.424C593.59 663.857 595.394 664.25 597.207 664.602C597.237 664.609 597.267 664.614 597.297 664.62C605.09 666.128 613.031 666.893 621.031 666.893C622.561 666.893 624.112 666.864 625.64 666.808C639.806 666.287 653.61 663.405 666.669 658.242ZM600.471 661.231L604.757 651.89C608.895 652.513 613.803 651.489 617.109 645.062C619.019 646.494 621.669 648.183 625.129 649.159C630.218 650.593 635.661 650.059 641.334 647.574L642.809 650.323C642.809 650.323 642.81 650.323 642.81 650.324L647.978 659.958C640.636 661.637 633.121 662.624 625.497 662.905C624.016 662.959 622.514 662.987 621.032 662.987C614.112 662.987 607.238 662.397 600.471 661.231ZM652.446 619.723C651.918 619.742 651.42 619.975 651.067 620.367C650.713 620.76 650.534 621.279 650.569 621.806L653.071 658.675C652.679 658.784 652.287 658.89 651.894 658.994L643.9 644.094C643.9 644.093 643.9 644.093 643.9 644.093L642.462 641.413C641.952 640.463 640.769 640.105 639.818 640.615C638.867 641.125 638.51 642.309 639.02 643.26L639.481 644.118C628.095 648.973 621.268 643.441 617.9 640.712L617.569 640.444C617.081 640.052 616.434 639.917 615.831 640.081C615.227 640.246 614.738 640.689 614.517 641.275C612.332 647.055 609.123 649.06 604.113 647.776C603.198 647.541 602.247 647.995 601.853 648.853L596.517 660.483C595.804 660.335 595.093 660.181 594.383 660.02L598.367 633.22C598.478 632.474 598.149 631.731 597.523 631.311C596.897 630.891 596.086 630.869 595.438 631.254C595.424 631.262 594 632.078 591.961 632.216C590.509 632.315 589.129 632.043 587.832 631.406C590.658 630.398 592.708 628.389 594.711 626.424C597.987 623.212 601.081 620.176 608.015 620.622C609.079 620.691 610.033 620.875 610.949 621.136C610.918 626.48 613.558 631.193 618.213 633.954C620.711 635.436 623.501 636.18 626.172 636.18C628.721 636.18 631.162 635.503 633.137 634.145C635.357 632.618 638.814 628.925 637.812 621.093C639.963 618.648 640.196 615.09 640.409 611.83C640.869 604.795 641.305 598.134 656.933 597.005L656.618 601.449C656.569 602.149 656.899 602.822 657.483 603.211C660.93 605.511 668.015 613.288 671.713 618.738L669.291 622.443C666.253 621.479 659.071 619.479 652.446 619.723Z" fill="white"></path>
<path d="M656.27 607.496C655.071 607.54 654.138 608.484 654.185 609.605C654.232 610.726 655.242 611.599 656.441 611.554C657.64 611.51 658.573 610.566 658.526 609.445C658.478 608.325 657.469 607.452 656.27 607.496Z" fill="white"></path>
<path d="M639.812 636.471L639.791 636.431C639.282 635.479 638.099 635.12 637.148 635.628C636.196 636.136 635.837 637.319 636.345 638.271L636.367 638.311C636.718 638.97 637.393 639.345 638.091 639.345C638.401 639.345 638.717 639.271 639.009 639.114C639.961 638.606 640.32 637.423 639.812 636.471Z" fill="white"></path>
</g>
<g clip-path="url('#clip6_1_52')">
<path d="M1773.05 570.012C1773.06 569.9 1773.07 569.774 1773.08 569.634L1773.45 565.646C1773.72 562.728 1773.78 561.516 1772.68 560.843C1772.67 560.834 1772.66 560.826 1772.64 560.818C1771.53 560.172 1770.37 560.923 1768.08 562.544L1765.13 564.631C1764.93 564.767 1764.77 564.88 1764.63 564.978C1763.58 565.703 1763.45 565.852 1762.64 567.251L1746.4 595.371C1745.42 597.068 1745.87 599.165 1747.39 600.046L1751.32 602.311C1752.84 603.192 1754.88 602.528 1755.86 600.831L1772.22 572.5C1772.89 571.33 1772.95 571.212 1773.05 570.012ZM1754.28 599.921C1753.81 600.735 1752.87 601.107 1752.23 600.735L1748.3 598.47C1747.66 598.097 1747.51 597.095 1747.98 596.281L1748.82 594.826L1755.12 598.466L1754.28 599.921ZM1756.03 596.89L1749.73 593.249L1750.83 591.346L1757.13 594.986L1756.03 596.89ZM1758.04 593.41L1754.81 591.545L1756.22 589.098C1756.48 588.663 1756.33 588.106 1755.89 587.855C1755.46 587.604 1754.9 587.753 1754.65 588.188L1753.24 590.634L1751.74 589.769L1761.28 573.235L1767.59 576.875L1758.04 593.41ZM1768.5 575.299L1762.19 571.659L1763.25 569.826L1769.56 573.466L1768.5 575.299ZM1770.64 571.589L1770.47 571.89L1764.16 568.249L1764.21 568.161C1764.87 567.019 1764.87 567.019 1765.66 566.476C1765.81 566.375 1765.98 566.258 1766.18 566.118L1769.13 564.031C1769.72 563.61 1771.26 562.524 1771.74 562.419C1771.88 562.859 1771.71 564.683 1771.64 565.48L1771.27 569.467C1771.26 569.611 1771.25 569.74 1771.24 569.855C1771.17 570.681 1771.17 570.681 1770.64 571.589Z" fill="white"></path>
<path d="M1787.43 573.457C1788.41 571.76 1787.96 569.663 1786.44 568.782L1782.51 566.517C1780.99 565.636 1778.95 566.3 1777.97 567.997L1761.74 596.117C1760.93 597.516 1760.86 597.703 1760.76 598.976C1760.75 599.149 1760.73 599.347 1760.71 599.581L1760.38 603.182C1760.12 605.98 1760.05 607.353 1761.17 607.998C1761.18 608.006 1761.2 608.014 1761.21 608.022C1762.34 608.637 1763.36 607.975 1765.75 606.284L1769.02 603.973C1769.14 603.892 1769.24 603.819 1769.33 603.755C1770.32 603.065 1770.4 602.959 1771.07 601.789L1787.43 573.457ZM1779.55 568.907C1780.02 568.093 1780.96 567.721 1781.6 568.093L1785.53 570.358C1786.17 570.731 1786.32 571.733 1785.85 572.547L1785.01 574.002L1778.71 570.362L1779.55 568.907ZM1777.8 571.938L1784.1 575.578L1783 577.482L1776.7 573.842L1777.8 571.938ZM1768.29 602.263C1768.2 602.329 1768.09 602.403 1767.97 602.487L1764.7 604.797C1764.05 605.259 1762.55 606.316 1762.1 606.415C1761.95 605.948 1762.13 604.074 1762.19 603.349L1762.52 599.747C1762.55 599.505 1762.56 599.3 1762.58 599.122C1762.65 598.168 1762.65 598.168 1763.31 597.027L1763.36 596.938L1769.67 600.579L1769.49 600.879C1768.97 601.788 1768.97 601.788 1768.29 602.263ZM1770.58 599.002L1764.27 595.362L1765.33 593.529L1771.64 597.17L1770.58 599.002ZM1766.24 591.953L1775.79 575.418L1782.09 579.059L1772.55 595.593L1766.24 591.953Z" fill="white"></path>
<path d="M1796.7 583.664C1796.71 583.551 1796.72 583.426 1796.73 583.285L1797.1 579.298C1797.36 576.379 1797.43 575.168 1796.33 574.494C1796.32 574.486 1796.3 574.477 1796.29 574.469C1795.17 573.824 1794.02 574.575 1791.72 576.196L1788.77 578.283C1788.58 578.418 1788.42 578.531 1788.27 578.629C1787.22 579.355 1787.09 579.503 1786.28 580.902L1770.05 609.022C1769.07 610.719 1769.51 612.817 1771.04 613.698L1774.96 615.963C1776.49 616.844 1778.53 616.18 1779.51 614.483L1795.86 586.151C1796.54 584.981 1796.59 584.864 1796.7 583.664ZM1774.47 604.997L1780.78 608.638L1779.68 610.541L1773.37 606.901L1774.47 604.997ZM1777.93 613.573C1777.46 614.386 1776.52 614.759 1775.87 614.386L1771.95 612.121C1771.3 611.749 1771.15 610.746 1771.62 609.933L1772.46 608.477L1778.77 612.118L1777.93 613.573ZM1781.69 607.061L1775.38 603.421L1784.93 586.886L1788.28 588.821L1786.87 591.267C1786.62 591.702 1786.77 592.259 1787.2 592.51C1787.64 592.762 1788.19 592.612 1788.44 592.177L1789.86 589.731L1791.24 590.527L1781.69 607.061ZM1792.15 588.95L1785.84 585.31L1786.9 583.477L1793.2 587.118L1792.15 588.95ZM1794.29 585.241L1794.11 585.541L1787.81 581.901L1787.86 581.812C1788.52 580.671 1788.52 580.671 1789.31 580.128C1789.45 580.026 1789.62 579.909 1789.82 579.769L1792.77 577.682C1793.37 577.262 1794.91 576.176 1795.38 576.071C1795.52 576.511 1795.36 578.334 1795.28 579.131L1794.92 583.119C1794.9 583.263 1794.89 583.391 1794.88 583.507C1794.81 584.332 1794.81 584.332 1794.29 585.241Z" fill="white"></path>
<path d="M1757.21 585.572C1756.77 585.321 1756.22 585.47 1755.97 585.905L1755.96 585.924C1755.7 586.359 1755.85 586.916 1756.29 587.167C1756.72 587.418 1757.28 587.269 1757.53 586.834L1757.54 586.815C1757.79 586.38 1757.65 585.823 1757.21 585.572Z" fill="white"></path>
<path d="M1786.8 593.198C1786.37 592.947 1785.81 593.096 1785.56 593.532L1785.55 593.55C1785.3 593.985 1785.45 594.542 1785.88 594.793C1786.32 595.045 1786.88 594.896 1787.13 594.46L1787.14 594.442C1787.39 594.006 1787.24 593.45 1786.8 593.198Z" fill="white"></path>
</g>
<g clip-path="url('#clip7_1_52')" filter="url('#filter3_f_1_52')">
<path d="M1012.85 235.155C1005.01 227.317 994.585 223 983.5 223C972.417 223 961.998 227.315 954.16 235.15C954.159 235.152 954.157 235.153 954.155 235.155C954.153 235.157 954.152 235.159 954.15 235.16C946.315 242.998 942 253.417 942 264.5C942 275.585 946.316 286.006 954.154 293.844C954.154 293.844 954.155 293.845 954.155 293.845C954.155 293.845 954.156 293.846 954.156 293.846C961.994 301.684 972.416 306 983.5 306C994.585 306 1005.01 301.683 1012.85 293.845C1020.68 286.007 1025 275.585 1025 264.5C1025 253.415 1020.68 242.993 1012.85 235.155ZM1021.6 261.243C1012.24 264.951 1001.43 263.042 993.905 256.388L1011.67 238.621C1017.6 245.064 1020.91 253.062 1021.6 261.243ZM986.764 226.382C995.217 227.092 1003.1 230.551 1009.38 236.327L991.612 254.095C984.954 246.564 983.047 235.746 986.764 226.382ZM983.35 226.245C981.582 231.214 981.154 236.53 982.119 241.759C983.131 247.243 985.608 252.27 989.314 256.393L983.5 262.207L957.621 236.327C964.661 229.847 973.73 226.282 983.35 226.245ZM955.327 238.62L981.207 264.5L975.393 270.314C971.27 266.608 966.243 264.13 960.759 263.119C955.53 262.154 950.214 262.582 945.245 264.35C945.282 254.73 948.847 245.661 955.327 238.62ZM945.383 267.764C954.746 264.047 965.565 265.954 973.095 272.612L955.327 290.38C949.551 284.104 946.092 276.217 945.383 267.764ZM980.236 302.617C971.783 301.908 963.896 298.449 957.621 292.673L975.389 274.905C982.046 282.436 983.953 293.254 980.236 302.617ZM983.65 302.755C985.418 297.787 985.846 292.471 984.881 287.242C983.87 281.758 981.393 276.73 977.686 272.607L983.5 266.793L1009.38 292.673C1002.34 299.153 993.27 302.718 983.65 302.755ZM1011.67 290.379L985.793 264.5L991.607 258.686C995.731 262.393 1000.76 264.87 1006.24 265.881C1008.07 266.218 1009.9 266.385 1011.73 266.385C1015.13 266.385 1018.51 265.804 1021.74 264.657C1021.7 273.897 1018.34 283.123 1011.67 290.379Z" fill="#BB6BD9"></path>
<path d="M979.069 230.547C978.911 229.665 978.068 229.078 977.187 229.236C974.338 229.746 971.554 230.602 968.911 231.781C968.093 232.145 967.726 233.104 968.09 233.922C968.36 234.525 968.952 234.884 969.572 234.884C969.793 234.884 970.017 234.838 970.232 234.743C972.636 233.671 975.168 232.892 977.758 232.429C978.64 232.271 979.227 231.428 979.069 230.547Z" fill="#BB6BD9"></path>
<path d="M967 234.505C966.535 233.74 965.538 233.496 964.772 233.96C964.77 233.962 964.748 233.976 964.746 233.977C963.98 234.441 963.736 235.439 964.201 236.204C964.507 236.707 965.041 236.984 965.589 236.984C965.876 236.984 966.166 236.908 966.429 236.749L966.456 236.733C967.221 236.268 967.465 235.27 967 234.505Z" fill="#BB6BD9"></path>
<path d="M998.687 295.19C998.328 294.369 997.372 293.995 996.551 294.354C994.139 295.408 991.601 296.168 989.008 296.612C988.125 296.764 987.532 297.602 987.684 298.485C987.819 299.275 988.505 299.833 989.28 299.833C989.371 299.833 989.463 299.825 989.556 299.809C992.408 299.32 995.198 298.484 997.85 297.325C998.671 296.967 999.045 296.01 998.687 295.19Z" fill="#BB6BD9"></path>
<path d="M1002.59 292.933C1002.13 292.165 1001.13 291.916 1000.36 292.376L1000.34 292.392C999.571 292.853 999.322 293.849 999.782 294.617C1000.09 295.124 1000.62 295.405 1001.17 295.405C1001.46 295.405 1001.75 295.33 1002.01 295.174C1002.01 295.173 1002.02 295.164 1002.02 295.163C1002.79 294.703 1003.05 293.701 1002.59 292.933Z" fill="#BB6BD9"></path>
</g>
<defs>
<filter id="filter0_f_1_52" x="103" y="73" width="108" height="108" filterUnits="userSpaceOnUse" color-interpolation-filters="sRGB">
<feFlood flood-opacity="0" result="BackgroundImageFix"></feFlood>
<feBlend mode="normal" in="SourceGraphic" in2="BackgroundImageFix" result="shape"></feBlend>
<feGaussianBlur stdDeviation="2" result="effect1_foregroundBlur_1_52"></feGaussianBlur>
</filter>
<filter id="filter1_f_1_52" x="1751" y="365" width="108" height="108" filterUnits="userSpaceOnUse" color-interpolation-filters="sRGB">
<feFlood flood-opacity="0" result="BackgroundImageFix"></feFlood>
<feBlend mode="normal" in="SourceGraphic" in2="BackgroundImageFix" result="shape"></feBlend>
<feGaussianBlur stdDeviation="2" result="effect1_foregroundBlur_1_52"></feGaussianBlur>
</filter>
<filter id="filter2_f_1_52" x="572" y="580" width="108" height="108" filterUnits="userSpaceOnUse" color-interpolation-filters="sRGB">
<feFlood flood-opacity="0" result="BackgroundImageFix"></feFlood>
<feBlend mode="normal" in="SourceGraphic" in2="BackgroundImageFix" result="shape"></feBlend>
<feGaussianBlur stdDeviation="2" result="effect1_foregroundBlur_1_52"></feGaussianBlur>
</filter>
<filter id="filter3_f_1_52" x="937" y="218" width="93" height="93" filterUnits="userSpaceOnUse" color-interpolation-filters="sRGB">
<feFlood flood-opacity="0" result="BackgroundImageFix"></feFlood>
<feBlend mode="normal" in="SourceGraphic" in2="BackgroundImageFix" result="shape"></feBlend>
<feGaussianBlur stdDeviation="2.5" result="effect1_foregroundBlur_1_52"></feGaussianBlur>
</filter>
<clipPath id="clip0_1_52">
<rect width="100" height="100" fill="white" transform="translate(107 77)"></rect>
</clipPath>
<clipPath id="clip1_1_52">
<rect width="100" height="100" fill="white" transform="translate(1723 78)"></rect>
</clipPath>
<clipPath id="clip2_1_52">
<rect width="100" height="100" fill="white" transform="translate(1755 369)"></rect>
</clipPath>
<clipPath id="clip3_1_52">
<rect width="50" height="50" fill="white" transform="translate(1655 266)"></rect>
</clipPath>
<clipPath id="clip4_1_52">
<rect width="100" height="100" fill="white" transform="translate(126 332)"></rect>
</clipPath>
<clipPath id="clip5_1_52">
<rect width="100" height="100" fill="white" transform="translate(576 584)"></rect>
</clipPath>
<clipPath id="clip6_1_52">
<rect width="46.5978" height="46.5978" fill="white" transform="translate(1764.3 556) rotate(30)"></rect>
</clipPath>
<clipPath id="clip7_1_52">
<rect width="83" height="83" fill="white" transform="translate(942 223)"></rect>
</clipPath>
</defs>
</svg>
