<svg width="28" height="28" viewBox="0 0 28 28" fill="none" xmlns="http://www.w3.org/2000/svg">
<path d="M5.99663 9.36975C8.18378 11.222 12.0215 14.4807 13.1495 15.4968C13.3009 15.634 13.4633 15.7037 13.6319 15.7037C13.8002 15.7037 13.9623 15.6346 14.1134 15.4981C15.2424 14.4811 19.0801 11.222 21.2673 9.36975C21.4035 9.25465 21.4242 9.05234 21.314 8.91162C21.0591 8.58646 20.6792 8.40002 20.2719 8.40002H6.99197C6.58476 8.40002 6.20476 8.58646 5.94994 8.91166C5.83969 9.05234 5.86045 9.25465 5.99663 9.36975Z" fill="white"></path>
<path d="M21.4074 10.3735C21.2897 10.3187 21.1513 10.3378 21.0534 10.4215C19.621 11.6357 17.7337 13.2399 16.3104 14.4641C16.2355 14.5283 16.1934 14.6227 16.195 14.7216C16.1966 14.8201 16.2423 14.9132 16.3195 14.9748C17.642 16.034 19.635 17.491 21.0741 18.5266C21.1315 18.5681 21.1996 18.5892 21.268 18.5892C21.3199 18.5892 21.3718 18.5772 21.4194 18.5525C21.5303 18.4958 21.6 18.3816 21.6 18.2571V10.6747C21.6 10.5453 21.5248 10.4276 21.4074 10.3735Z" fill="white"></path>
<path d="M6.18989 18.5266C7.62942 17.491 9.62272 16.034 10.9449 14.9747C11.022 14.9131 11.0678 14.8201 11.0694 14.7215C11.071 14.6226 11.0289 14.5283 10.954 14.4641C9.53062 13.2399 7.64302 11.6356 6.21065 10.4214C6.11208 10.3378 5.97332 10.3193 5.8566 10.3734C5.73923 10.4276 5.664 10.5453 5.664 10.6746V18.2571C5.664 18.3816 5.73372 18.4958 5.84459 18.5525C5.89224 18.5772 5.94413 18.5891 5.99601 18.5891C6.06442 18.5891 6.13249 18.5681 6.18989 18.5266Z" fill="white"></path>
<path d="M21.193 19.4299C19.8031 18.4355 17.2428 16.5816 15.7144 15.3411C15.5899 15.2397 15.4096 15.2429 15.2871 15.3486C14.9872 15.6102 14.7362 15.8307 14.5582 15.9909C14.0116 16.4843 13.2529 16.4843 12.705 15.9902C12.5276 15.8304 12.2767 15.6092 11.9768 15.3486C11.8552 15.2422 11.6746 15.239 11.5498 15.3411C10.0266 16.5773 7.46333 18.4335 6.07114 19.4298C5.99364 19.4856 5.94372 19.5715 5.93401 19.6665C5.92461 19.7615 5.95604 19.8558 6.02122 19.9259C6.27252 20.1966 6.62657 20.3519 6.99197 20.3519H20.272C20.6374 20.3519 20.9911 20.1966 21.243 19.9259C21.3078 19.8562 21.3396 19.7618 21.3302 19.6668C21.3205 19.5719 21.2705 19.4856 21.193 19.4299Z" fill="white"></path>
</svg>
